<svg width="300" height="200" viewBox="0 0 135 136" fill="none" xmlns="http://www.w3.org/2000/svg">
<path fill-rule="evenodd" clip-rule="evenodd" d="M115.336 20.8113C130.814 35.5076 135.138 57.4247 134.001 78.7335C132.912 99.1521 126.83 120.869 109.427 131.6C93.238 141.582 73.8218 131.817 55.3608 127.224C36.6777 122.576 14.339 122.375 4.90118 105.594C-5.12449 87.7673 1.98775 66.125 10.5588 47.5621C19.732 27.6949 31.6654 7.11743 52.87 1.70363C75.0624 -3.96234 98.7213 5.03703 115.336 20.8113Z" fill="#E93C4F"/>
<g clip-path="url(#clip0_60_362)">
<path d="M80.6343 13.2264C81.4145 13.0564 82.2129 13.3574 82.9475 13.6703C97.0054 19.6601 107.974 32.4555 111.745 47.2637C115.516 62.0719 112.003 78.5551 102.523 90.5392C93.042 102.523 77.8094 109.735 62.5309 109.473C62.2203 111.247 61.9098 113.022 61.5992 114.796C61.5988 113.292 61.5747 111.701 60.7857 110.42C59.9967 109.14 58.1477 108.39 56.9392 109.285C55.288 111.257 56.5641 114.83 59.0909 115.31C58.5966 116.469 56.6909 116.108 56.0503 115.023C55.4097 113.938 55.5551 112.587 55.4564 111.331C55.3576 110.075 54.7779 108.63 53.5421 108.384C49.8737 107.652 46.2756 106.568 42.8134 105.152C40.5726 104.236 37.99 102.435 38.5151 100.072C38.9029 98.3266 40.9684 97.3919 42.7411 97.6266C44.5138 97.8614 46.043 98.9426 47.4918 99.9907C48.2475 97.3792 49.0032 94.7676 49.7589 92.1561C47.3803 92.2664 46.7126 88.7813 44.7084 87.4955C35.539 81.6128 29.4263 71.2149 28.7456 60.3419C28.065 49.4689 32.8331 38.3898 41.1973 31.4095C49.5616 24.4291 61.315 21.7202 71.8908 24.3354C73.1456 22.7917 75.4914 22.2572 77.2911 23.1048C78.9738 22.2461 78.8878 19.8644 78.6765 17.9872C78.4651 16.1099 78.7886 13.6288 80.6343 13.2264ZM50.9581 100.824C50.2655 100.057 50.9452 100.51 50.9452 100.51L50.9581 100.91V101.093C50.9581 101.093 49.2789 100.443 48.4725 100.18C62.265 104.839 78.3158 102.129 89.8137 93.1991C101.312 84.2694 107.911 69.3891 106.811 54.8725C105.711 40.3559 96.9451 26.6398 84.233 19.5445C83.9298 19.3753 83.5902 19.204 83.2508 19.2777C82.815 19.3723 82.5675 19.8215 82.376 20.2243C81.7379 21.5665 81.0999 22.9087 80.4618 24.2509C81.965 25.1336 82.7681 27.0615 82.3361 28.7504C90.9386 34.2026 96.9289 43.5958 98.2442 53.6952C99.5595 63.7946 96.1748 74.4087 89.2557 81.8824C82.3367 89.356 72.0145 93.5474 61.8438 93.0132C59.4602 92.888 56.8928 92.5579 54.8389 93.7739C52.4641 95.1797 51.611 98.1425 50.9581 100.824Z" fill="white"/>
<path d="M47.4772 38.1793C47.2838 38.1819 47.2001 38.4215 47.1691 38.6125C47.051 39.3393 46.933 40.0661 46.815 40.7929C47.7235 40.7743 48.7476 40.7039 49.3387 40.0137C48.5248 39.8766 47.9163 38.9969 48.0751 38.187C48.3646 38.6341 48.7559 39.015 49.2107 39.2923C49.4371 39.4304 49.6988 39.5654 49.7874 39.8155C49.9338 40.229 49.5222 40.6113 49.163 40.863C48.8038 41.1148 48.402 41.5162 48.5716 41.9207C48.2395 41.5376 47.7531 41.2923 47.2476 41.2528C46.9582 41.2302 46.6383 41.2639 46.4069 41.0888C46.0339 40.8065 46.1612 40.2193 46.3673 39.7993C46.5734 39.3794 46.8244 38.8815 46.5931 38.4748C46.42 38.1705 46.0148 38.0203 45.9236 37.6822C45.7906 37.1894 46.401 36.8456 46.8956 36.7193C47.2397 36.6314 47.6021 36.5535 47.9468 36.6391C48.2916 36.7246 48.6092 37.0238 48.5964 37.3787C48.4324 37.8385 47.9653 38.1726 47.4772 38.1793V38.1793ZM48.2841 37.2382C47.7902 36.9586 47.1316 37.0032 46.6799 37.3466C46.5315 37.4594 46.3962 37.6568 46.4861 37.82C47.1299 37.861 47.7864 37.6486 48.2841 37.2382Z" fill="black"/>
<path d="M83.1724 64.1256C82.9551 64.0396 82.7622 63.8928 82.6212 63.7064C83.146 63.4772 83.5763 63.0396 83.7968 62.5111C83.937 62.1749 84.4389 62.1689 84.7406 62.3731C85.0423 62.5772 85.2306 62.9106 85.5051 63.1501C85.7796 63.3895 86.2369 63.5096 86.4885 63.2462C86.7818 62.939 87.3514 63.1867 87.5005 63.5843C87.6497 63.982 87.5185 64.4239 87.3871 64.8278C87.3108 65.0624 87.2274 65.3082 87.0449 65.4741C86.8623 65.6401 86.5471 65.6877 86.3783 65.5077C85.7158 64.8012 84.3931 64.9159 83.862 65.7258C83.331 65.4058 83.0403 64.7314 83.1724 64.1256ZM84.1309 63.0357C83.6566 63.515 83.4958 64.2789 83.7364 64.9088C83.7919 65.0539 83.9778 65.2084 84.0737 65.0862C84.5145 64.5253 85.3176 64.2799 85.9966 64.4987C86.125 64.5401 86.2392 64.3704 86.2025 64.2405C86.1659 64.1107 86.0444 64.0262 85.9313 63.9527C85.4463 63.6376 84.9614 63.3225 84.4765 63.0073C84.4201 62.9707 84.3579 62.9325 84.2909 62.9391C84.2276 62.9454 84.1756 62.9904 84.1309 63.0357V63.0357ZM86.7424 65.3211C86.9403 64.8664 87.0744 64.384 87.1397 63.8924C87.1541 63.7836 87.1006 63.6203 86.9991 63.6622C86.3991 63.9398 86.2543 64.875 86.7424 65.3211V65.3211Z" fill="black"/>
<path d="M68.0687 64.3994C67.1676 63.7065 66.0261 63.1511 65.6503 62.0784C65.0114 60.2543 62.9845 59.3009 61.9813 57.6489C61.1342 56.2541 61.1085 54.5074 61.3615 52.8952C61.9954 48.856 64.4924 44.928 68.3169 43.4821C70.1418 42.7921 72.1336 42.6959 74.0846 42.716C75.7635 42.7332 77.4992 42.8455 78.9949 43.6084C80.4906 44.3713 81.6916 45.9416 81.5341 47.6133C81.4707 48.286 81.1975 48.9312 81.1849 49.6068C81.1505 51.4578 82.9637 52.734 84.5669 53.6597C86.1131 54.5525 87.6593 55.4453 89.2055 56.338C90.0033 56.7987 90.1125 57.8857 90.1293 58.8069C90.1752 61.3261 90.221 63.8453 90.2669 66.3646C90.2761 66.868 90.2844 67.3793 90.1544 67.8658C90.014 68.3908 89.7201 68.8595 89.4301 69.3191C86.5403 73.9008 83.4043 78.7084 78.5279 81.0673C77.4605 81.5837 76.3348 81.9676 75.2124 82.3502C74.1636 82.7077 73.1148 83.0653 72.066 83.4228C71.2912 83.6869 70.4924 83.9545 69.6751 83.9081C68.8578 83.8617 68.0073 83.4246 67.7202 82.658C67.5536 82.2129 67.5936 81.7192 67.6632 81.2491C67.9004 79.6485 68.4576 78.096 69.2925 76.7099C70.4574 74.7758 71.1576 72.5204 71.022 70.2667C70.8865 68.0129 69.8586 65.7756 68.0687 64.3994ZM64.4787 59.0586C66.6499 61.0781 68.5792 63.3575 70.2121 65.8327C70.7746 66.6852 71.3072 67.5724 71.6072 68.5487C72.1888 70.4418 71.8431 72.5071 71.1709 74.37C70.4988 76.2329 69.5134 77.9668 68.7671 79.8013C68.3539 80.8172 68.0981 82.1767 68.9656 82.8477C69.6792 83.3997 70.704 83.1131 71.5514 82.8034C72.8225 82.3389 74.0936 81.8743 75.3648 81.4097C76.4196 81.0242 77.4773 80.6374 78.4788 80.1292C83.0553 77.8066 85.9857 73.2412 88.6959 68.883C88.9413 68.4884 89.1896 68.0873 89.3171 67.6405C89.4496 67.1757 89.4449 66.6845 89.4392 66.2013C89.414 64.0702 89.3889 61.9391 89.3637 59.8079C89.3548 59.0582 89.3389 58.278 88.9998 57.6092C88.395 56.4164 86.9843 55.9348 85.771 55.3725C83.9505 54.5289 82.3218 53.2743 81.0415 51.7294C80.7114 51.3311 80.3957 50.8953 80.2941 50.3881C80.1135 49.4865 80.6409 48.6005 80.7192 47.6844C80.8475 46.1842 79.7154 44.803 78.3502 44.1679C76.985 43.5328 75.429 43.4864 73.9233 43.4744C72.4959 43.463 71.0504 43.4748 69.6693 43.8353C65.5562 44.9089 62.7417 49.0096 62.1379 53.2173C61.9666 54.411 61.9539 55.6809 62.4875 56.7623C62.9385 57.6764 63.7323 58.3644 64.4787 59.0586Z" fill="black"/>
<path d="M44.6771 122.68C46.2814 123.656 48.1875 123.979 50.0462 124.245C53.0027 124.668 55.9734 124.993 58.9515 125.219C62.7881 125.509 66.872 125.582 70.2091 123.667C70.4557 123.525 70.7072 123.362 70.8421 123.112C71.2515 122.352 70.317 121.528 69.4669 121.376C68.6169 121.224 67.6343 121.311 67.0131 120.712C68.2642 120.09 69.8388 120.176 71.0153 120.929C72.1919 121.682 72.9284 123.077 72.8874 124.473C72.8539 125.618 72.3393 126.72 72.3926 127.864C72.4577 129.26 71.0349 130.229 69.7363 130.744C65.6087 132.383 61.0427 132.425 56.6021 132.36C52.6678 132.302 48.5813 132.14 45.0851 130.335C44.2058 129.881 43.3468 129.296 42.8606 128.434C42.4243 127.661 42.3329 126.746 42.2506 125.862C42.0851 124.083 41.9807 122.094 43.1265 120.723C44.2189 119.417 46.085 119.12 47.7838 118.997C48.6042 118.938 48.8927 117.849 48.7428 117.04C48.593 116.231 48.236 115.37 48.588 114.626C49.2909 113.142 51.7322 113.872 52.9869 112.813C53.4034 112.461 54.0728 113.087 53.911 113.607C53.7492 114.128 53.1375 114.371 52.5925 114.381C52.0476 114.392 51.505 114.242 50.9622 114.291C50.4195 114.341 49.8338 114.688 49.788 115.231C54.7907 117.238 60.4395 117.597 65.656 116.239C64.7581 115.14 63.3201 114.504 61.9028 114.581C61.9258 114.231 62.3169 114.034 62.6616 113.97C64.2233 113.681 65.8309 114.774 66.4291 116.245C67.0272 117.716 66.7469 119.436 66.0011 120.838C65.323 120.627 65.3766 119.669 65.4861 118.967C65.5956 118.265 65.3071 117.252 64.6099 117.387C59.8449 118.31 54.8378 117.951 50.2529 116.359C49.903 116.237 49.6805 116.729 49.6377 117.097C49.4781 118.473 49.3965 120.075 50.4134 121.016C50.9126 121.477 51.5915 121.683 52.2507 121.849C55.8336 122.754 59.6019 122.917 63.2496 122.326C63.7602 122.243 64.4105 122.208 64.6598 122.661C61.8961 123.914 58.7112 123.629 55.6926 123.319C54.2657 123.173 52.8105 123.019 51.5021 122.431C50.2264 121.858 49.1468 120.895 47.8425 120.391C46.5382 119.886 44.7906 120.017 44.0793 121.221C44.0009 121.354 43.9369 121.5 43.9258 121.653C43.8936 122.099 44.2951 122.448 44.6771 122.68ZM71.5343 128.187C72.1153 126.888 71.5803 125.398 71.4087 123.985C67.4453 126.692 62.2332 126.458 57.46 125.958C54.6925 125.668 51.9308 125.323 49.177 124.924C47.3911 124.665 45.5153 124.343 44.1193 123.2C43.7445 122.893 43.3278 123.536 43.2657 124.017C43.0853 125.414 42.9285 126.934 43.6543 128.141C44.4501 129.465 46.0657 130.016 47.5656 130.386C54.1664 132.014 61.1526 132.055 67.7722 130.506C69.2612 130.158 70.91 129.583 71.5343 128.187V128.187Z" fill="black"/>
<path d="M79.6918 12.9598C80.4719 12.7898 81.2704 13.0908 82.0049 13.4037C96.0628 19.3935 107.032 32.1889 110.803 46.9971C114.574 61.8053 111.061 78.2885 101.58 90.2726C92.0994 102.257 76.8669 109.468 61.5883 109.206C61.2778 110.981 60.9672 112.755 60.6567 114.53C60.6562 113.026 60.6322 111.434 59.8431 110.154C59.0541 108.873 57.2051 108.123 55.9966 109.019C54.3454 110.99 55.6216 114.564 58.1483 115.044C57.6541 116.203 55.7483 115.842 55.1077 114.757C54.4671 113.672 54.6125 112.321 54.5138 111.064C54.415 109.808 53.8353 108.364 52.5995 108.117C48.9311 107.386 45.333 106.302 41.8708 104.886C39.6301 103.969 37.0474 102.169 37.5725 99.8056C37.9604 98.06 40.0258 97.1253 41.7985 97.36C43.5712 97.5948 45.1004 98.676 46.5492 99.7241C47.3049 97.1126 48.0607 94.501 48.8164 91.8895C46.4378 91.9998 45.7701 88.5147 43.7659 87.2289C34.5964 81.3462 28.4837 70.9483 27.8031 60.0753C27.1224 49.2023 31.8905 38.1232 40.2548 31.1429C48.619 24.1625 60.3725 21.4536 70.9482 24.0688C72.2031 22.5251 74.5488 21.9906 76.3485 22.8382C78.0312 21.9795 77.9453 19.5978 77.7339 17.7206C77.5225 15.8433 77.846 13.3622 79.6918 12.9598V12.9598ZM94.4322 69.8396C98.5549 59.0063 96.6166 46.0834 89.4971 36.9363C88.9813 36.2736 88.3987 35.6002 87.6023 35.334C85.803 34.7327 84.0037 34.1313 82.2045 33.53C82.3998 34.2888 81.7929 35.0677 81.0601 35.3451C80.3273 35.6225 79.5131 35.5284 78.7359 35.4295C77.3514 35.2533 75.9222 35.0589 74.7266 34.3389C73.531 33.6189 72.6246 32.225 72.9141 30.8597C73.1453 29.7689 71.8085 29.0698 70.7344 28.7704C67.9304 27.9888 65.1264 27.2071 62.3223 26.4255C61.7111 26.2551 61.0572 26.0571 60.6666 25.557C60.276 25.0569 60.353 24.1597 60.9541 23.9563C56.255 24.0819 51.5881 25.2889 47.4173 27.4573C50.7423 29.1808 54.1306 30.9506 56.7337 33.6431C58.7753 35.7549 60.3101 38.5857 60.0625 41.5126C59.848 44.0486 58.3016 46.3421 56.2873 47.8977C54.273 49.4534 51.8248 50.348 49.3565 50.9685C45.7147 51.8838 41.3028 52.0279 38.7972 49.2311C38.0683 48.4175 36.7656 48.6284 35.7092 48.9062C33.9265 49.3749 32.1439 49.8436 30.3613 50.3123C29.9462 50.4214 29.4438 50.6334 29.4297 51.0623C29.3869 52.3632 30.3509 53.6276 31.6167 53.9307C32.8824 54.2338 34.3146 53.5432 34.8657 52.3641C35.1977 51.6537 36.1983 51.5428 36.9315 51.8209C37.6647 52.0991 38.2714 52.6444 39.0008 52.9324C40.1567 53.3889 41.5137 53.16 42.6317 53.7027C44.4965 54.6079 44.8142 57.1478 44.4585 59.1899C43.7983 62.9802 41.6493 66.4908 38.5739 68.8026C36.5558 70.3196 36.9061 73.464 37.9217 75.7754C38.9373 78.0868 40.4476 80.4109 40.0949 82.9108C38.71 80.0151 37.5373 77.0178 36.5893 73.9512C36.0663 72.2595 35.767 70.0636 37.2091 69.0362C40.2732 66.8532 42.5468 63.5842 43.5272 59.952C44.1148 57.7749 43.8226 54.8019 41.6646 54.1475C40.8282 53.8938 39.9031 54.0822 39.0724 53.8103C38.3768 53.5826 37.8194 53.0559 37.1515 52.7565C36.4836 52.4572 35.5432 52.4828 35.1907 53.1243C33.9898 55.3099 30.3038 55.3993 28.9983 53.2746C27.4823 64.0996 31.5825 75.5581 39.622 82.9638C47.6615 90.3695 59.4175 93.5171 70.0818 91.1192C80.7462 88.7214 90.0233 80.8445 94.119 70.7103C92.981 70.203 92.3364 68.9454 92.17 67.7105C92.0035 66.4757 92.2255 65.2268 92.3486 63.9869C92.5962 61.4933 92.4408 58.9602 91.8904 56.5157C91.7424 55.8583 91.4521 55.093 90.7922 54.9567C88.8114 54.5478 86.9318 53.6575 85.3605 52.3841C84.1669 51.4168 83.1651 49.4995 84.3265 48.4938C84.8676 48.0253 84.0996 47.2536 83.8199 46.5947C83.2295 45.2037 85.0377 44.0612 86.4831 43.6203C88.1779 43.1032 89.8726 42.5862 91.5674 42.0692C91.7503 42.0134 91.9441 41.9571 92.1299 42.0025C92.6702 42.1343 92.6321 43.0066 92.1776 43.327C91.723 43.6473 91.1165 43.5954 90.5605 43.5822C88.3493 43.5297 86.1287 44.3389 84.4696 45.8018C85.2076 46.6179 85.3975 47.8857 84.9312 48.8822C84.3697 50.082 85.1666 51.5376 86.2684 52.2731C87.3701 53.0085 88.7144 53.2592 89.951 53.7342C91.1876 54.2091 92.4339 55.053 92.7333 56.3434C93.3397 58.9576 93.4717 61.6812 93.1209 64.3418C92.8561 66.3499 92.6079 68.9595 94.4322 69.8396V69.8396ZM50.0155 100.557C49.3229 99.7901 49.4941 98.5734 49.9259 97.6344C50.3577 96.6954 51.01 95.8355 51.1928 94.8182C51.3755 93.8009 50.8242 92.5316 49.7937 92.4525C49.0391 94.9395 48.2845 97.4265 47.5299 99.9135C61.3225 104.573 77.3732 101.862 88.8711 92.9325C100.369 84.0029 106.968 69.1225 105.868 54.6059C104.768 40.0893 96.0025 26.3732 83.2904 19.2779C82.9872 19.1087 82.6476 18.9374 82.3083 19.0111C81.8725 19.1057 81.6249 19.5549 81.4335 19.9577C80.7954 21.2999 80.1573 22.6421 79.5192 23.9843C81.0224 24.867 81.8256 26.7949 81.3936 28.4838C89.996 33.936 95.9863 43.3292 97.3016 53.4286C98.6169 63.528 95.2322 74.1422 88.3132 81.6158C81.3941 89.0894 71.0719 93.2808 60.9012 92.7466C58.5176 92.6214 55.9503 92.2913 53.8963 93.5073C51.5215 94.9132 50.6684 97.8759 50.0155 100.557H50.0155ZM82.4888 14.5801C81.7045 14.2303 80.8512 13.8942 80.0087 14.0612C79.1663 14.2283 78.418 15.1209 78.7249 15.923C93.4933 21.9523 104.518 36.3183 106.521 52.1437C108.525 67.9692 101.428 84.6292 88.6276 94.1485C75.8275 103.668 57.8299 105.67 43.2504 99.1975C41.8344 98.5689 39.9012 97.9809 38.967 99.2169C38.392 99.9778 38.5846 101.115 39.1645 101.872C39.7444 102.629 40.6231 103.089 41.4841 103.499C57.0371 110.911 76.521 109.288 90.6336 99.4057C104.746 89.5232 112.934 71.7687 111.287 54.6188C109.64 37.4689 98.2241 21.5967 82.4888 14.5801V14.5801ZM30.044 49.6247C31.8587 49.1293 33.6735 48.6338 35.4883 48.1383C36.7399 47.7966 38.2899 47.5345 39.1543 48.5021C40.5502 50.0645 42.7119 50.7794 44.8067 50.8191C46.9016 50.8588 48.9589 50.2945 50.9516 49.6472C53.6677 48.7648 56.5611 47.5201 57.8611 44.9773C58.6252 43.4828 59.4099 41.8954 59.3062 40.2201C59.2106 38.676 58.3726 37.2899 57.5581 35.9746C56.8737 34.8694 56.1717 33.7436 55.1717 32.913C53.4655 31.4957 51.0553 31.0733 49.4963 29.4956C48.5951 28.5836 47.1636 28.3613 45.9132 28.6451C44.6629 28.9288 43.5577 29.6461 42.526 30.4073C36.611 34.7714 32.1528 41.0761 30.0098 48.1074C29.8564 48.6107 29.7284 49.2038 30.044 49.6247ZM81.5558 33.2194C82.1351 32.3868 83.443 32.6768 84.3059 33.2099C85.1688 33.743 86.0984 34.4648 87.081 34.2129C81.7146 28.7698 74.5259 25.1553 66.9562 24.0942C64.9967 23.8195 62.7499 23.8022 61.3414 25.1919C64.8661 26.2491 68.3909 27.3064 71.9157 28.3636C72.3794 28.5027 72.869 28.658 73.1866 29.0234C73.7449 29.6657 73.5454 30.642 73.7005 31.4788C73.9241 32.6851 74.9373 33.624 76.0699 34.0957C77.2024 34.5673 78.4529 34.6513 79.6772 34.7294C80.1028 34.7565 80.5772 34.7681 80.8986 34.4879C81.2607 34.1721 81.2814 33.6138 81.5558 33.2194ZM80.4855 27.8771C80.8149 27.1568 80.5182 26.2727 79.9712 25.6999C79.4241 25.1271 78.6738 24.8011 77.9386 24.5063C76.6497 23.9894 75.3124 23.5177 73.9241 23.4804C73.5761 23.471 73.1933 23.5031 72.9435 23.7457C72.6938 23.9882 72.7168 24.504 73.0501 24.6048C75.6483 25.3907 78.151 26.4921 80.4855 27.8771ZM55.1579 91.9208C52.6312 91.4496 50.172 90.6187 47.8773 89.461C47.6875 89.3652 47.4854 89.2644 47.2738 89.2844C47.0622 89.3044 46.8533 89.5024 46.9068 89.7081C46.9431 89.8476 47.0781 89.9343 47.2023 90.0073C48.5214 90.7828 49.8518 91.5635 51.2991 92.0603C52.7464 92.5571 54.3371 92.7562 55.8111 92.3454C55.7617 92.0726 55.4305 91.9716 55.1579 91.9208V91.9208ZM80.67 17.8354C80.4717 17.5449 80.0068 17.5659 79.7318 17.7853C79.4568 18.0047 79.3245 18.3525 79.2042 18.683C78.7012 20.0652 78.1982 21.4473 77.6952 22.8294C77.649 22.9564 77.6021 23.089 77.617 23.2233C77.6605 23.6134 78.2142 23.7547 78.55 23.5515C78.8858 23.3484 79.0452 22.9539 79.183 22.5864C79.6663 21.2973 80.1496 20.0083 80.6329 18.7192C80.7408 18.4316 80.8433 18.0891 80.67 17.8354V17.8354Z" fill="black"/>
</g>
<defs>
<clipPath id="clip0_60_362">
<rect width="119.467" height="119.467" fill="white" transform="translate(10.2814 12.9106)"/>
</clipPath>
</defs>
</svg>
