<svg width="300" height="200" viewBox="0 0 126 183" fill="none" xmlns="http://www.w3.org/2000/svg">
<path fill-rule="evenodd" clip-rule="evenodd" d="M81.3223 28.4256C81.6355 16.7948 66.9153 -3.0605 42.8003 0.398944C16.3977 4.18649 -2.7599 34.5238 1.0565 68.4313L1.20187 69.7337C3.54474 90.9121 4.32755 107.595 0.279499 131.086C-2.74709 148.65 18.7751 187.535 66.383 181.384C113.991 175.232 140.141 118.146 117.675 91.2098C87.6675 55.2316 80.6367 53.8815 81.3223 28.4256Z" fill="#E93C4F"/>
<path fill-rule="evenodd" clip-rule="evenodd" d="M53.0492 62.335C52.2324 60.2331 50.6852 58.5165 49.3458 56.7023C45.7648 51.8515 43.5441 46.0074 43.0002 40.0026C42.7098 36.797 43.8124 21.151 49.6436 17.4805C46.7648 16.5941 43.8124 15.6699 41.4511 13.7997C39.0897 11.9296 37.4186 8.87205 38.0541 5.92762C39.0158 1.47109 44.8038 -0.44219 49.1213 1.02258C53.4387 2.48735 56.5444 6.19303 59.418 9.73253C62.1657 9.50108 62.8477 5.45247 65.3573 4.30997C67.0501 3.53932 69.0182 4.32943 70.6592 5.20485C75.435 7.75243 79.908 11.2458 82.4333 16.0334C84.9585 20.821 85.1772 27.0706 81.9596 31.4232C83.1316 30.0814 85.5605 31.7502 85.4217 33.5264C85.2829 35.3026 83.7138 36.5915 82.2159 37.556C80.7179 38.5204 79.0441 39.5204 78.4522 41.2008C76.9622 45.4309 74.5951 49.3497 71.5443 52.637C69.6804 54.6455 67.5405 56.4526 66.1581 58.8184C64.7756 61.1842 64.3137 64.3636 65.9263 66.5789C68.0705 64.2967 71.7663 63.655 74.5544 65.0807C77.3425 66.5065 78.9858 69.8785 78.3908 72.9529C82.2757 73.2863 85.7661 76.3641 86.583 80.1767C94.4601 88.117 100.894 97.4845 105.478 107.687C108.388 114.163 110.548 120.945 112.703 127.709C113.545 130.356 114.399 133.129 113.929 135.867C112.976 141.427 106.944 144.702 101.342 145.361C94.3661 146.18 87.0977 144.145 81.5615 139.823C78.6043 149.02 75.6524 159.065 79.0142 168.121C79.7341 170.06 78.2944 172.263 76.4137 173.125C74.533 173.986 72.3684 173.86 70.3047 173.717C58.7375 172.916 47.1704 172.114 35.6033 171.312C33.1793 171.144 29.8652 169.718 30.7232 167.445C32.6392 162.368 33.1867 156.782 32.2928 151.43C31.6109 155.035 30.4283 158.544 28.7898 161.827C28.7898 161.827 23.016 173.717 17.2579 167.615C13.9761 160.984 13.8346 153.219 14.8033 145.884C15.772 138.549 17.7746 131.371 18.5571 124.014C19.3194 116.846 18.9143 109.594 19.6598 102.424C20.4053 95.2553 22.4658 87.9135 27.3591 82.6212C31.2308 78.4339 35.1025 74.2466 38.9741 70.0593C40.0165 68.9319 41.1153 67.766 42.5568 67.2371C43.9982 66.7082 45.8826 67.0445 46.624 68.3892C47.5378 67.2523 48.6071 66.0268 50.0578 65.8747C51.5085 65.7227 53.0226 67.4999 52.0912 68.6225C53.7604 67.1063 53.8659 64.4369 53.0492 62.335Z" fill="white"/>
<path fill-rule="evenodd" clip-rule="evenodd" d="M83.9163 80.1769C91.7934 88.1171 98.2274 97.4847 102.811 107.687C105.721 114.163 107.882 120.945 110.036 127.71C110.879 130.357 111.732 133.129 111.262 135.867C110.309 141.427 104.277 144.703 98.675 145.361C91.6995 146.18 84.8786 143.721 79.3424 139.399C76.3852 148.595 72.9858 159.065 76.3476 168.121C76.6522 168.942 77.4468 169.87 77.1082 170.663C76.6467 171.745 74.8319 172.628 73.7471 173.125C73.4614 173.256 74.224 170.55 74.1908 166.579C74.1341 159.822 71.3011 136.345 77.9701 137.896C94.2585 141.684 106.539 141.097 106.797 137.056C108.104 116.541 83.0994 76.3642 83.9163 80.1769Z" fill="#E7EAEE"/>
<path fill-rule="evenodd" clip-rule="evenodd" d="M48.3668 57.8692L48.3668 57.8692L48.3667 57.8691L48.3667 57.869L48.3666 57.8689L48.3665 57.8688L48.3664 57.8687L48.3663 57.8686L48.3663 57.8685L48.3662 57.8684L48.3661 57.8683L48.366 57.8682L48.3659 57.8681L48.3659 57.868L48.3658 57.8679L48.3657 57.8678L48.3656 57.8677C48.0667 57.4805 47.7681 57.0937 47.4792 56.7023C43.8982 51.8515 41.6775 46.0074 41.1335 40.0026C40.8431 36.797 41.9457 21.151 47.777 17.4805C44.8981 16.5941 41.9457 15.6699 39.5844 13.7997C37.2231 11.9296 35.552 8.87205 36.1874 5.92762C37.1492 1.47109 42.9372 -0.44219 47.2546 1.02258C51.572 2.48735 54.6777 6.19303 57.5513 9.73253C59.0647 9.60505 59.9515 8.31957 60.8621 6.99948C61.6048 5.92284 62.3634 4.8232 63.4907 4.30997C65.1835 3.53932 67.1515 4.32943 68.7926 5.20485C73.5683 7.75243 78.0414 11.2458 80.5666 16.0334C83.0919 20.821 83.3105 27.0706 80.0929 31.4232C81.265 30.0814 83.6938 31.7502 83.555 33.5264C83.4162 35.3026 81.8472 36.5915 80.3492 37.556C80.2705 37.6067 80.1912 37.6575 80.1117 37.7085L80.1087 37.7104C78.6762 38.6288 77.146 39.6098 76.5855 41.2008C75.0956 45.4309 72.7284 49.3497 69.6777 52.637C69.1816 53.1716 68.666 53.6918 68.1503 54.2121L68.1503 54.2122C66.7284 55.6469 65.306 57.0822 64.2914 58.8184C62.909 61.1842 62.4471 64.3636 64.0596 66.5789C66.2039 64.2967 69.8997 63.655 72.6878 65.0807C75.4759 66.5065 77.1192 69.8785 76.5242 72.9529C80.4091 73.2863 83.8994 76.3641 84.7163 80.1767C92.5934 88.117 99.0274 97.4845 103.611 107.687C106.521 114.163 108.682 120.945 110.836 127.709C111.679 130.356 112.532 133.129 112.062 135.867C111.109 141.427 105.077 144.702 99.475 145.361C92.4995 146.18 85.2311 144.145 79.6949 139.823C76.7377 149.02 73.7858 159.064 77.1476 168.121C77.4452 168.922 77.3737 169.769 77.0546 170.548C74.8654 165.791 74.4645 160.361 75.05 155.155C75.6403 149.907 77.1836 144.819 78.7195 139.766C78.9742 138.928 77.6433 138.707 76.7756 138.588C75.2349 138.377 74.1168 137.064 73.1533 135.844L69.2356 130.881C66.7071 127.678 63.7918 124.24 59.7584 123.62C58.6399 123.448 57.508 123.51 56.3744 123.573H56.3743H56.3743H56.3742H56.3741H56.374H56.3739H56.3738H56.3737H56.3736H56.3735H56.3734H56.3733H56.3732H56.3732H56.3731H56.373C55.6828 123.611 54.9921 123.649 54.3033 123.635C51.6265 123.577 48.9731 122.696 46.7937 121.141C46.2711 120.768 45.7408 120.301 45.6335 119.668C45.5287 119.05 46.0874 118.325 46.6807 118.483L46.7227 118.495C46.7087 118.49 46.6947 118.486 46.6807 118.483C44.7923 117.913 42.994 117.045 41.3728 115.922C41.074 115.715 40.7693 115.485 40.6153 115.156C40.2826 114.444 40.8332 113.573 41.5589 113.273C42.2846 112.972 43.1065 113.082 43.8835 113.196C42.9566 113.008 42.001 112.808 41.2243 112.268C40.4476 111.728 39.891 110.754 40.1315 109.839C40.372 108.924 41.6326 108.358 42.3433 108.982C42.0333 108.059 42.7053 107.036 43.5848 106.617C44.4643 106.198 45.4834 106.231 46.4561 106.284C50.5373 106.509 54.6069 106.945 58.6434 107.588L58.0522 99.2851C58.0281 98.9465 57.9988 98.5917 57.8152 98.3061C57.58 97.9403 57.1449 97.7659 56.7371 97.6148C48.521 94.5711 40.0687 92.165 31.4813 90.4255L33.405 126.466C33.464 127.571 33.7718 128.973 34.8638 129.153C41.6482 130.269 48.3032 132.17 54.6542 134.804C55.5462 135.174 56.1986 133.925 56.3628 132.974L57.9901 123.542C58.2163 127.529 57.646 131.56 56.3224 135.328C57.3346 135.566 57.9203 134.228 58.0823 133.201L59.5519 123.88C59.8022 127.184 59.5133 130.529 58.7 133.741C58.5133 134.479 58.2297 135.295 57.5399 135.616C56.9561 135.887 56.2723 135.711 55.6542 135.531L34.1642 129.264C33.8263 129.165 33.4736 129.058 33.2232 128.811C32.8504 128.443 32.7995 127.868 32.7707 127.346L30.9822 94.8482C30.8663 92.7416 30.9814 90.6299 31.0965 88.5232L31.686 77.7341C28.227 89.9189 27.9003 102.835 29.3575 115.417C30.8148 127.999 34.0155 140.312 37.5225 152.483C36.047 149.959 34.9693 147.203 34.3413 144.347C32.626 146.802 30.8262 149.6 31.3156 152.555C32.1375 157.517 31.6134 162.696 29.814 167.393C29.4036 168.464 30.1415 169.7 31.1517 170.243C32.162 170.787 33.3602 170.813 34.5072 170.828L49.7778 171.017C49.3566 170.483 49.5086 169.596 50.0838 169.232C49.9298 170.891 52.0584 171.673 53.71 171.897C61.5128 172.959 69.8071 173.954 76.9783 170.722C76.5004 171.753 75.5917 172.646 74.5471 173.125C72.6664 173.986 70.5018 173.86 68.438 173.717L33.7367 171.312C31.3127 171.144 27.9986 169.718 28.8566 167.445C30.7726 162.368 31.3201 156.782 30.4262 151.43C29.7442 155.035 28.5617 158.544 26.9231 161.827C27.5952 156.346 29.4325 151.011 32.2778 146.279C34.3029 142.911 33.1363 138.625 32.0961 134.835C27.1711 116.891 26.4076 97.8187 29.8825 79.5385C22.4662 84.9596 19.3701 94.5791 18.4904 103.723C18.1227 107.546 18.0619 111.396 18.0011 115.243C17.9165 120.598 17.832 125.947 16.92 131.215C16.5033 133.621 15.9155 135.999 15.3281 138.375C14.4 142.13 13.473 145.88 13.2239 149.731C12.835 155.744 14.1168 161.726 15.3912 167.615C12.1094 160.984 11.968 153.219 12.9367 145.884C13.3812 142.518 14.0436 139.184 14.7058 135.852L14.7058 135.852C15.4865 131.923 16.2671 127.994 16.6905 124.014C17.0744 120.404 17.1622 116.773 17.25 113.141C17.3366 109.562 17.4231 105.983 17.7932 102.424C18.5386 95.2553 20.5991 87.9135 25.4925 82.6212L37.1075 70.0593C38.1499 68.9319 39.2487 67.766 40.6901 67.2371C42.1316 66.7082 44.016 67.0445 44.7573 68.3892C45.6712 67.2523 46.7405 66.0268 48.1912 65.8747C49.6419 65.7227 51.156 67.4999 50.2246 68.6225C51.8938 67.1063 51.9993 64.4369 51.1825 62.335C50.5422 60.6872 49.4529 59.2761 48.3668 57.8692ZM76.9783 170.722C76.9892 170.699 76.9999 170.675 77.0104 170.652C77.018 170.634 77.0255 170.617 77.0329 170.6C77.0402 170.582 77.0475 170.565 77.0546 170.548L77.0821 170.607L77.1082 170.663C77.065 170.683 77.0217 170.703 76.9783 170.722ZM111.269 132.826C111.662 136.1 109.906 139.392 107.301 141.415C104.696 143.438 101.361 144.327 98.0705 144.553C91.1426 145.029 84.0614 142.654 78.8215 138.097C82.844 133.974 83.0686 126.731 79.3093 122.367C82.5436 120.863 85.8504 119.337 89.3961 118.947C92.9418 118.557 96.8329 119.498 99.1378 122.221C99.5316 122.686 99.8724 123.193 100.213 123.7L100.213 123.7C100.631 124.323 101.049 124.945 101.564 125.488C101.118 122.536 98.8167 120.07 96.0621 118.919C93.3075 117.767 90.1739 117.793 87.2594 118.441C84.3449 119.089 81.5995 120.324 78.8779 121.552C78.3604 121.785 77.9732 121.04 77.8891 120.479L77.4014 117.226C77.2004 115.885 77.2218 114.13 78.485 113.637C79.4339 113.268 79.1851 111.82 78.5571 111.018C78.4519 110.884 78.3392 110.749 78.2254 110.613C77.66 109.935 77.0663 109.224 77.2162 108.389C78.8081 99.5266 80.4089 90.6284 83.2417 82.081C83.3294 81.8162 83.4361 81.5292 83.6775 81.3892C84.0037 81.2001 84.4159 81.3637 84.7442 81.5492C87.398 83.0488 88.9839 85.7281 90.5664 88.4016C91.125 89.3452 91.6831 90.288 92.2875 91.178C93.2202 92.5512 94.2886 93.8225 95.3574 95.0942L95.3575 95.0943L95.3575 95.0944L95.3576 95.0944L95.3576 95.0945L95.3577 95.0946L95.3577 95.0946L95.3577 95.0947L95.3578 95.0948L95.3578 95.0948L95.3579 95.0949L95.3579 95.095L95.358 95.095L95.358 95.0951L95.3581 95.0952C96.1514 96.0391 96.945 96.9833 97.6834 97.9696C102.236 104.051 104.469 111.365 106.707 118.695L106.707 118.696L106.707 118.696L106.707 118.696L106.707 118.697L106.707 118.697L106.707 118.697L106.707 118.697L106.707 118.698L106.708 118.698L106.708 118.698L106.708 118.698L106.708 118.699L106.708 118.699L106.708 118.699C107.728 122.042 108.75 125.387 109.993 128.62C110.043 128.752 110.094 128.883 110.145 129.015C110.626 130.256 111.111 131.507 111.269 132.826ZM75.6029 113.686C76.2524 113.68 76.9325 113.666 77.5012 113.352C78.0699 113.038 78.472 112.32 78.2089 111.726C77.9591 111.162 77.2393 110.959 76.6279 111.039C76.2736 111.085 75.9351 111.201 75.596 111.317C75.3499 111.401 75.1035 111.485 74.8507 111.543C73.5918 111.831 72.307 111.452 71.0292 111.074C69.6459 110.666 68.2708 110.26 66.9457 110.705C67.8028 109.287 67.7462 107.532 67.6925 105.864L67.6842 105.604C67.4121 96.75 69.3766 87.8362 73.3452 79.917C71.8803 80.9649 70.8289 82.5756 70.4592 84.3383C70.4153 84.5477 70.3803 84.76 70.3453 84.9724L70.3453 84.9725C70.2554 85.5182 70.1654 86.0638 69.9246 86.5579C68.9486 88.5605 66.1924 88.7088 63.9736 88.5086C62.1553 88.3446 60.2497 88.1059 58.7687 87.0383C58.0258 86.5027 57.4278 85.7838 56.833 85.0689C56.0412 84.1171 55.2553 83.1724 54.1414 82.6768C52.2938 81.8548 50.3194 82.5398 48.3216 83.2328C46.5168 83.8589 44.6931 84.4917 42.9267 84.0259C41.9314 83.7635 41.243 84.9855 40.9443 85.9705L39.6427 90.2622C39.0355 87.9162 39.7772 85.2698 41.5151 83.5811C40.7708 83.0929 40.9712 82.0906 41.1697 81.0982C41.3707 80.0931 41.5696 79.0982 40.7828 78.6581C38.4076 77.3293 37.9375 74.1735 37.7348 71.4594C34.7127 72.5753 32.9886 75.8417 32.4572 79.0191C32.144 80.8919 32.1476 82.7927 32.1512 84.6955C32.1537 86.0209 32.1563 87.3472 32.0517 88.6657C41.163 90.4494 50.1438 92.8996 58.8985 95.9903C59.4345 96.1795 59.9974 96.3903 60.355 96.8321C60.7397 97.3073 60.8114 97.9551 60.868 98.5639C61.1538 101.642 61.4236 104.848 60.3222 107.737L60.3316 98.7343C60.3321 98.2359 60.2469 97.6119 59.7725 97.4592C59.0344 97.2216 58.6885 98.3492 58.7493 99.1221L59.2763 105.814C59.3484 106.73 59.4816 107.762 60.2188 108.311L46.9724 106.98C45.5964 106.842 43.9474 106.819 43.1426 107.944C43.275 109.02 44.5612 109.471 45.6225 109.693L54.0545 111.451C51.4159 111.996 48.6427 111.507 46.1464 110.493C45.9567 110.416 45.7676 110.336 45.5782 110.255C44.7879 109.92 43.9947 109.584 43.1474 109.472C42.0971 109.333 40.9103 109.62 40.3004 110.486C44.0731 112.981 48.4576 114.543 52.9579 114.996C52.9307 115.484 52.2794 115.63 51.7915 115.595C50.5222 115.502 49.3014 115.13 48.0796 114.757C47.5124 114.584 46.9449 114.411 46.3723 114.266C44.5659 113.808 42.541 113.657 40.9375 114.606C44.5465 117.55 49.3052 118.573 53.8681 119.505L46.3128 119.344C47.6489 121.722 50.647 122.598 53.3707 122.742C54.1759 122.785 54.9885 122.784 55.8007 122.783H55.8011C57.7358 122.78 59.6687 122.778 61.4974 123.366C64.8169 124.434 67.2213 127.251 69.4419 129.939L73.724 135.124C74.3079 135.83 75.4204 135.909 76.2455 135.509C77.0705 135.109 77.6528 134.339 78.1091 133.544C79.0158 131.964 79.5551 130.108 79.2624 128.31C78.9697 126.512 77.7292 124.813 75.9811 124.301C72.9783 123.42 70.8466 120.752 69.373 117.991C68.8671 117.043 68.4126 116.065 67.9584 115.088C67.0895 113.219 66.2216 111.352 64.9969 109.702C64.6298 109.207 64.2299 108.73 63.8301 108.253L63.83 108.253C62.8416 107.074 61.854 105.896 61.365 104.454C63.8806 106.888 66.0157 109.715 67.6689 112.8C67.8482 113.135 68.0459 113.496 68.3921 113.651C68.6138 113.751 68.8657 113.75 69.1088 113.748L75.6029 113.686ZM74.9107 38.2044C75.5185 38.1253 75.9993 37.6695 76.4339 37.2372L78.5492 35.1334C74.6418 44.8154 69.0618 54.1764 60.6033 60.2971C58.8859 61.5397 56.8444 62.6843 54.7577 62.3114C53.6647 62.116 52.6841 61.5165 51.8148 60.8257C50.0043 59.3872 48.5719 57.5246 47.3469 55.5633C43.8885 50.026 41.9681 43.5187 41.9973 36.9902C42.0265 30.4618 44.0231 23.9363 47.7596 18.5828C47.888 18.3987 48.032 18.2056 48.2442 18.1322C48.4594 18.0579 48.6951 18.1238 48.913 18.1901C56.7445 20.5707 64.5012 23.1975 72.1677 26.0654C73.3813 26.5194 73.8865 27.9478 74.1071 29.2246C74.5615 31.8545 74.4404 34.5823 73.7548 37.1615C73.5973 37.7539 74.3028 38.2835 74.9107 38.2044ZM69.8007 18.6297C70.7245 18.6379 71.3687 19.8733 70.8466 20.6354C70.3245 21.3975 68.9398 21.2431 68.5984 20.3847C68.2156 19.4219 67.228 18.8992 66.2964 18.4062C66.1975 18.3539 66.0993 18.3019 66.0025 18.2497C62.8716 16.5634 60.4647 13.8856 58.0695 11.2208L58.0695 11.2208C57.4411 10.5217 56.8135 9.82347 56.1739 9.14431C54.9587 7.854 53.6842 6.61955 52.3558 5.44619C50.8989 4.15933 49.3529 2.93117 47.569 2.15898C45.7851 1.38678 43.7225 1.10541 41.8866 1.74428C42.7136 1.78621 43.3615 2.72864 43.1045 3.51583C42.8475 4.30302 41.7683 4.68159 41.0759 4.22745C40.3834 3.77332 40.3006 2.63265 40.9202 2.08327C39.0428 2.63905 37.4653 4.12383 36.7969 5.96419C36.6652 6.32706 36.5672 6.72835 36.6877 7.09511C36.7557 7.3019 36.889 7.48556 37.0209 7.66712C37.2071 7.92359 37.3903 8.17588 37.3818 8.48325C37.314 10.9436 39.7229 13.1712 42.1704 12.9116C42.6499 12.8608 42.843 13.3388 43.0433 13.8348C43.1389 14.0714 43.2362 14.3121 43.3669 14.5013C43.6005 14.8394 43.9908 15.0278 44.3645 15.1987C48.1633 16.9363 52.0941 18.3853 56.1119 19.529C56.5775 19.6615 57.2149 19.7167 57.4123 19.2747C57.6773 18.6816 58.4472 18.3737 59.0481 18.6205C59.6489 18.8673 59.9801 19.6275 59.7517 20.2356C59.6493 20.5081 59.9851 20.729 60.2588 20.828L73.9455 25.7765C73.6931 24.7636 74.9798 23.7568 75.9023 24.2455C76.8247 24.7342 76.7144 26.3643 75.7345 26.7243L80.7369 29.2467L81.6351 21.9058C81.677 21.5628 81.5399 21.0529 81.2087 21.151C80.5949 21.3327 79.8714 20.9857 79.629 20.3932C79.3867 19.8007 79.6595 19.0461 80.2247 18.7456C80.6597 18.5143 80.8218 17.9443 80.7256 17.4611C80.6293 16.9779 80.3318 16.5624 80.0348 16.1693C76.8222 11.9167 72.7527 8.29623 68.0852 5.72322C66.8343 5.03363 65.3179 4.41222 64.0252 5.01984C63.2769 5.37158 62.7735 6.0638 62.2815 6.74052L62.2814 6.74065C62.2031 6.84829 62.1251 6.95554 62.0465 7.06097C61.0623 8.38042 59.8445 9.52512 58.4667 10.4259L62.8278 14.8626C62.4671 14.084 63.016 13.0349 63.8614 12.8874C64.7068 12.7398 65.5786 13.5408 65.5031 14.3956C65.4275 15.2505 64.4287 15.8861 63.6223 15.5926C65.4435 17.064 67.4595 18.6088 69.8007 18.6297ZM75.3521 78.7256C76.0149 78.7742 76.6879 78.3762 76.9647 77.772C77.2414 77.1678 77.1033 76.3982 76.6336 75.9281C76.0469 75.3406 76.7263 74.2435 77.5522 74.1582C78.3781 74.073 79.1285 74.6005 79.7905 75.1017L82.9814 77.5174C83.3683 77.8103 83.8023 78.248 83.6331 78.7029C79.9886 88.5034 77.5929 98.7675 76.5223 109.169C76.4355 110.012 75.6229 110.633 74.789 110.784C73.955 110.935 73.1028 110.723 72.2818 110.513L69.3461 109.762C69.1467 109.711 68.9377 109.655 68.7895 109.512C68.5775 109.308 68.5449 108.985 68.5275 108.692C67.931 98.6755 69.9912 88.5132 74.4415 79.5203C74.6317 79.1358 74.9243 78.6942 75.3521 78.7256ZM68.8859 72.4434C68.0916 71.8441 68.2738 70.3809 69.1908 69.9946C66.921 70.1907 64.8502 71.2023 62.7773 72.215C60.7781 73.1916 58.777 74.1692 56.5935 74.4169C57.9056 75.3072 58.5248 77.0133 58.3469 78.5888C58.1691 80.1643 57.2867 81.5989 56.1399 82.6938C57.1217 84.5741 58.7434 86.113 60.6726 86.9949C61.3525 87.3057 62.1315 87.5379 62.8396 87.2981C62.994 87.2459 63.1589 87.1759 63.3265 87.1049C63.9379 86.8457 64.5855 86.5711 64.8924 87.0805C65.4678 88.0357 66.9367 87.8167 67.8895 87.2371C68.5404 86.8412 69.146 86.305 69.414 85.5919C69.682 84.8788 69.5233 83.9681 68.8968 83.5346C68.3765 83.1745 68.2015 82.3971 68.5174 81.8488C68.8333 81.3005 69.5936 81.062 70.1661 81.3315C70.666 81.5669 71.134 80.9803 71.4325 80.5153C72.1353 79.4209 73.1706 78.5431 74.3653 78.0289C73.887 77.3257 73.9541 76.3001 74.5201 75.6652C73.0581 74.5966 71.8852 73.1363 71.1571 71.4783C71.0373 72.4661 69.6802 73.0428 68.8859 72.4434ZM49.5243 68.6179L49.5243 68.6179L49.5243 68.618L49.5243 68.6181L49.5243 68.6181L49.5243 68.6182L49.5243 68.6183L49.5242 68.6184C49.5062 68.7363 49.4882 68.854 49.474 68.971C49.4082 69.5168 49.467 70.1517 49.9044 70.4846C51.5736 68.4615 52.5548 65.8808 52.6514 63.2597C52.6707 62.7362 53.4645 62.8119 53.9592 62.9842C55.4198 63.493 57.0596 63.2392 58.4763 62.6188C59.8931 61.9983 61.1294 61.0375 62.3493 60.0866C61.9921 62.4631 62.303 64.9364 63.2373 67.1505L58.415 70.7718C58.2243 70.915 58.0456 71.2431 58.2641 71.3387C60.0915 70.7461 61.643 69.5412 63.1625 68.3612L63.3049 68.2506C64.8701 67.0359 66.5085 65.8174 68.4264 65.3206C70.3443 64.8238 72.6266 65.2158 73.8488 66.775C74.4512 67.5436 74.7395 68.5053 75.0152 69.4421L75.8692 72.3433C76.0543 72.9721 76.2362 73.6652 75.9696 74.2641C75.703 74.8629 74.7654 75.158 74.3912 74.6197L72.6427 72.1041C71.8098 70.9057 70.865 69.6252 69.4583 69.2363C67.9237 68.812 66.3413 69.5788 64.9143 70.285C62.4138 71.5225 59.8538 72.6396 57.246 73.6313C56.4442 73.9362 55.5549 73.6385 54.6849 73.3474C53.6945 73.0159 52.729 72.6928 51.9461 73.2765C51.6556 73.4932 51.2448 73.3748 50.9099 73.2364C48.6063 72.2845 46.5426 70.758 44.9581 68.834L48.2755 66.6792C48.7365 66.3797 49.3777 66.8097 49.5342 67.3367C49.6572 67.7506 49.5905 68.1857 49.5243 68.6179ZM51.9634 81.4721C50.4538 80.2379 49.7242 78.1222 50.1522 76.2199C50.261 75.7364 49.7584 75.362 49.3523 75.078C48.9461 74.7941 48.5438 74.2405 48.8574 73.8567C49.0263 73.65 48.796 73.3604 48.585 73.1968L44.526 70.0502C44.0391 69.6726 43.5369 69.2772 43.2558 68.7289C42.7477 67.7377 41.3914 67.2906 40.3934 67.7853C38.9764 68.4877 38.7788 70.3925 38.771 71.9742C38.7692 72.3469 38.8741 72.8418 39.2462 72.8628C40.1975 72.9167 40.6478 74.3938 39.8883 74.9691C39.1444 75.5327 39.6754 76.7544 40.4152 77.3233C40.5766 77.4474 40.7494 77.5663 40.9231 77.6858C41.5454 78.1141 42.1789 78.55 42.3411 79.2614C42.4617 79.7909 42.2832 80.352 42.1088 80.9002C41.8908 81.5856 41.6792 82.2507 42.0673 82.808C42.5425 83.4904 43.556 83.424 44.3733 83.2708C46.9298 82.7915 49.4636 82.191 51.9634 81.4721ZM70.0015 114.546C71.8413 114.397 73.6934 114.401 75.5326 114.557C75.6868 114.57 75.8498 114.587 75.9736 114.68C76.1643 114.823 76.1985 115.09 76.2199 115.327C76.3959 117.276 76.7661 119.208 77.3233 121.084C77.2367 121.314 76.9909 121.369 76.7353 121.427C76.5685 121.465 76.3976 121.504 76.264 121.593C75.8328 121.879 75.9586 122.565 76.2789 122.972C76.392 123.115 76.5232 123.247 76.6541 123.377L76.6541 123.378L76.6542 123.378L76.6542 123.378L76.6543 123.378L76.6543 123.378L76.6544 123.378C76.8938 123.617 77.132 123.856 77.2564 124.166C73.3108 122.93 70.4345 119.397 68.8978 115.558C68.8047 115.326 68.7148 115.066 68.7995 114.831C68.8841 114.595 69.2322 114.456 69.3917 114.649C69.4546 114.725 69.4706 114.828 69.4843 114.926L69.7529 116.844C69.788 117.095 70.1984 117.097 70.3374 116.886C70.4765 116.675 70.4251 116.396 70.3686 116.149L70.0015 114.546ZM57.2118 76.8116C56.6818 75.2842 55.2539 74.1071 53.6535 73.8784C53.0678 73.7947 52.4076 73.8542 51.9883 74.2716C51.0666 75.189 50.7025 76.5884 50.9187 77.8707C51.1349 79.1531 51.8878 80.3105 52.8804 81.1506C53.6223 81.7786 54.6685 82.254 55.5493 81.8429C55.8116 81.7205 56.0354 81.5281 56.235 81.3185C57.3498 80.1476 57.7418 78.339 57.2118 76.8116ZM74.798 36.5285C75.2333 33.4996 75.638 30.2336 74.208 27.5283C74.1085 27.34 74.0058 27.0923 74.1483 26.9341L78.6374 29.1582C78.9934 29.3347 79.4149 29.676 79.2492 30.0372C79.0558 30.4588 79.0192 30.9249 78.9825 31.3915V31.3916C78.9669 31.5887 78.9514 31.786 78.9241 31.98C78.7588 33.1533 78.1489 34.228 77.3755 35.1257C76.6021 36.0234 75.6667 36.7644 74.7374 37.4996C74.7055 37.176 74.7518 36.8504 74.798 36.5285ZM79.3181 123.515C78.8029 122.79 78.1145 122.08 77.2295 121.991C76.888 121.957 76.4287 122.304 76.6767 122.541C78.8201 124.59 80.2556 127.523 79.9902 130.476C79.7247 133.43 77.4967 136.248 74.5656 136.698C75.4327 137.728 77.0867 137.808 78.2616 137.151C79.4366 136.495 80.1922 135.272 80.6687 134.014C81.9693 130.578 81.4459 126.509 79.3181 123.515ZM33.312 89.4931C36.5638 90.0026 39.7364 90.9168 42.899 91.8288L51.5168 94.3139C54.1397 95.0702 56.7921 95.8389 59.1574 97.2017C58.0355 97.1608 56.9446 96.8403 55.871 96.5121C53.9726 95.9318 52.0806 95.3189 50.1881 94.7059C44.0492 92.7174 37.9058 90.7274 31.5276 89.8419C31.935 89.3543 32.6843 89.3947 33.312 89.4931ZM80.4305 32.2307C79.937 32.6741 79.7011 33.3356 79.5594 33.9838C79.5178 34.1741 79.4825 34.3664 79.4472 34.5586C79.3623 35.0208 79.2774 35.4829 79.1048 35.9185C79.0764 35.99 79.0457 36.0622 79.0147 36.1348C78.8592 36.4991 78.6985 36.8759 78.8146 37.2436C80.6759 37.1241 82.3599 35.6244 82.6935 33.7893C82.8055 33.1734 82.7391 32.45 82.2513 32.0575C81.7344 31.6415 80.9241 31.7874 80.4305 32.2307ZM70.9007 8.13853C71.1149 8.74637 70.7916 9.49245 70.2016 9.75185C69.6117 10.0112 68.8434 9.74513 68.5402 9.17639C68.2065 8.55026 68.5113 7.67021 69.1608 7.38463C69.8103 7.09906 70.6649 7.46935 70.9007 8.13853ZM48.7429 8.71223C48.7798 8.15955 48.4327 7.60203 47.9206 7.3911C47.2687 7.12264 46.4306 7.47963 46.1726 8.13568C45.9146 8.79172 46.2849 9.62398 46.9449 9.87154C47.7199 10.1622 48.6878 9.53812 48.7429 8.71223ZM73.9539 14.2796C73.9723 14.9788 74.6139 15.6021 75.3134 15.6002C76.0553 15.5981 76.7165 14.8847 76.6622 14.1447C76.611 13.4472 75.9408 12.8547 75.2422 12.8895C74.5436 12.9243 73.9356 13.5804 73.9539 14.2796ZM54.0147 15.0915C53.5075 15.7253 52.4004 15.7269 51.8914 15.0946C51.3824 14.4623 51.6204 13.3811 52.3479 13.021C53.0754 12.6609 54.0794 13.1272 54.2736 13.9154C54.373 14.3192 54.2745 14.7668 54.0147 15.0915ZM49.9017 25.6558C49.4725 26.3264 49.3809 27.2017 49.6619 27.9466C49.7661 28.2229 49.9213 28.4845 50.1419 28.6807C50.8496 29.3102 52.0594 29.0442 52.6551 28.3078C53.2507 27.5715 53.3327 26.5325 53.157 25.6018C53.087 25.2307 52.9579 24.8346 52.6413 24.6289C52.4209 24.4857 52.1436 24.4599 51.8815 24.4786C51.0873 24.5355 50.3309 24.9853 49.9017 25.6558ZM64.153 32.5189C63.919 32.2799 63.7646 31.9717 63.6688 31.6512C63.3136 30.4632 63.8138 29.0714 64.8441 28.3814C65.3101 28.0692 65.9109 27.8958 66.4383 28.0869C67.0848 28.3211 67.4401 29.0265 67.5628 29.7031C67.7384 30.6714 67.5272 31.7568 66.8143 32.4351C66.1013 33.1135 64.8413 33.2222 64.153 32.5189ZM46.2988 45.8764C46.3225 45.2782 46.3711 44.6809 46.4444 44.0866C46.4697 43.8807 46.648 43.7037 46.8541 43.6797C46.9495 45.1454 46.994 46.6143 46.9874 48.083C46.3391 47.6079 46.2669 46.6795 46.2988 45.8764ZM70.3778 39.5138C70.1829 38.6228 69.5138 37.8501 68.6597 37.53C68.5169 37.4765 68.5233 37.248 68.6435 37.1539C68.7636 37.0599 68.9344 37.0693 69.0826 37.1055C69.8948 37.3039 70.3971 38.1007 70.7685 38.8498C70.8668 39.0479 70.9634 39.2789 70.8769 39.4825C70.7904 39.6861 70.425 39.7299 70.3778 39.5138ZM55.5279 169.367C55.4424 169.175 55.2256 169.083 55.0275 169.01C51.9255 167.88 48.6321 167.276 45.3306 167.233C44.86 167.227 44.3103 167.272 44.0512 167.665C44.3033 167.877 44.6652 167.877 44.9946 167.872C48.4901 167.819 51.9947 168.468 55.2397 169.769C55.4354 169.847 55.6133 169.56 55.5279 169.367ZM57.2461 34.2055C57.0595 34.3593 56.8535 34.4874 56.6476 34.6154C56.4152 34.7599 56.183 34.9043 55.9787 35.0856C55.5936 35.4273 55.3151 35.98 55.5142 36.4548C55.7603 37.0412 56.5506 37.1521 57.1764 37.0392C57.2026 37.0345 57.2288 37.0295 57.2552 37.0245C57.4531 36.9872 57.6553 36.9491 57.8479 37.0019C58.0662 37.0616 58.2579 37.2916 58.1832 37.5051C58.1306 37.6551 57.9733 37.7387 57.8254 37.7966C56.9084 38.1552 55.7638 38.0218 55.0835 37.31C54.4031 36.5982 54.386 35.2947 55.1632 34.6901L58.1993 32.3281C58.1683 33.0503 57.8041 33.7459 57.2461 34.2055ZM68.8726 40.3027C69.0612 41.3692 68.7878 42.4652 68.4008 43.4768C66.7341 47.832 62.7987 51.2453 58.2516 52.2793C56.4216 52.6955 54.4028 52.7199 52.7743 51.7872C51.1458 50.8545 50.099 48.7567 50.8131 47.0212C51.6512 44.9843 54.2463 44.4131 56.4485 44.3669C56.6414 44.3628 56.8364 44.3599 57.0326 44.357C59.0761 44.3267 61.2576 44.2943 62.7366 42.9336C63.2629 42.4494 63.6425 41.8402 64.0229 41.2298L64.0229 41.2298C64.3436 40.7153 64.6647 40.1999 65.0746 39.758C65.9708 38.7917 67.7261 38.33 68.5137 39.3866C68.7115 39.652 68.815 39.9768 68.8726 40.3027ZM67.9369 41.928C68.1639 41.06 68.0642 39.8113 67.1766 39.6801C66.8465 39.6314 66.5175 39.7791 66.2433 39.9694C65.5613 40.4425 65.1242 41.1553 64.6847 41.872C64.3359 42.4408 63.9856 43.012 63.5101 43.468C62.2685 44.6586 60.4113 44.8692 58.6976 45.0176L55.404 45.3028C54.5639 45.3755 53.6934 45.4575 52.9623 45.8776C51.5891 46.6667 51.1129 48.684 51.9883 50.0039C52.9349 51.4313 54.9087 51.7412 56.6135 51.5763C61.8684 51.0681 66.6009 47.0356 67.9369 41.928ZM69.8137 108.646C69.635 108.667 69.4492 108.616 69.3054 108.508C69.2082 108.435 69.1302 108.337 69.0814 108.225C68.9227 107.863 69.137 107.386 69.5135 107.264C69.8899 107.142 70.3431 107.402 70.4271 107.789C70.5111 108.176 70.2068 108.601 69.8137 108.646ZM75.9058 108.695C75.776 108.581 75.6022 108.519 75.4296 108.524C75.0051 108.537 74.6641 109.016 74.7911 109.421C74.9181 109.827 75.4715 110.025 75.8274 109.794C76.1833 109.562 76.2252 108.975 75.9058 108.695ZM63.0983 77.8386C62.6572 77.3309 62.6949 76.4779 63.1792 76.0111C63.6634 75.5443 64.5172 75.5379 65.0084 75.9974C65.533 76.4882 65.5401 77.4252 65.0228 77.9238C64.5056 78.4224 63.5694 78.3809 63.0983 77.8386ZM57.3257 82.0721C57.2246 82.3432 57.2162 82.6479 57.3022 82.9241C57.5469 83.7097 58.6329 84.0835 59.3093 83.6149C59.9857 83.1464 60.0174 81.9983 59.3679 81.4931C58.7184 80.9879 57.6134 81.3012 57.3257 82.0721ZM45.6451 80.0738C45.4929 80.5769 45.0112 80.9623 44.4869 81.0006C43.7133 81.057 42.9905 80.2892 43.0936 79.5204C43.1967 78.7516 44.0962 78.2013 44.8276 78.4595C45.4555 78.6812 45.838 79.4365 45.6451 80.0738Z" fill="#00160A"/>
</svg>
