<svg width="200" height="100" viewBox="0 0 174 92" fill="none" xmlns="http://www.w3.org/2000/svg">
<path fill-rule="evenodd" clip-rule="evenodd" d="M154.133 63.4667C154.133 28.415 125.718 0 90.6667 0C55.615 0 24.5152 28.4748 27.2 63.4667C30.4 105.173 154.133 97.229 154.133 63.4667Z" fill="#E93C4F"/>
<path d="M40.5647 62.6634C40.7723 62.6448 41.0433 62.6662 41.1021 62.8662C41.1039 63.1073 40.7984 63.2075 40.5591 63.2373C39.2691 63.3977 37.9791 63.5581 36.6891 63.7185C37.2888 64.2274 37.3483 65.2371 36.841 65.8382C36.3337 66.4392 35.3641 66.5626 34.7002 66.1408C34.4788 66.0001 34.2902 65.8094 34.0574 65.6884C33.8247 65.5674 33.5171 65.5315 33.3156 65.6993C32.8599 66.0788 32.1728 65.9763 31.6276 65.7433C31.0871 65.5123 30.5538 65.1183 30.428 64.5442C30.3034 63.9753 30.6141 63.402 30.9815 62.9501C31.3489 62.4982 31.7927 62.089 32.0134 61.5501C32.3373 60.7595 33.2934 60.3659 34.1404 60.4777C34.9873 60.5895 35.7289 61.105 36.3458 61.6961C36.743 62.0767 37.3873 61.9274 37.9124 61.7632C38.4374 61.5991 39.0968 61.4779 39.4645 61.887" fill="white"/>
<path fill-rule="evenodd" clip-rule="evenodd" d="M115.041 60.4436C115.041 54.5245 119.417 53.1606 122.193 53.2303C124.969 53.3 127.617 55.0873 128.647 57.5801C129.678 60.073 129.036 63.1281 127.086 65.0394C125.135 66.9507 121.019 66.974 119.832 66.6137C118.645 66.2534 115.041 63.7473 115.041 60.4436Z" fill="white"/>
<path fill-rule="evenodd" clip-rule="evenodd" d="M121.848 56.3519C122.844 56.2722 123.867 56.6356 124.59 57.3258C125.71 58.3953 125.999 60.2349 125.262 61.5964C124.524 62.958 122.825 63.7202 121.317 63.3659C119.881 63.0285 118.731 61.7133 118.589 60.2453C118.446 58.7774 119.32 57.2651 120.664 56.6571C121.037 56.4883 121.439 56.3846 121.848 56.3519M123.576 57.0402C123.224 56.7811 122.836 56.5642 122.417 56.4805C121.94 56.3853 121.441 56.4688 120.993 56.6713C119.857 57.186 119.081 58.5194 119.156 59.8491C119.23 61.1788 120.153 62.4059 121.345 62.7451C122.537 63.0843 123.906 62.5025 124.556 61.371C125.207 60.2395 125.08 58.649 124.253 57.6611C124.054 57.4234 123.822 57.2205 123.576 57.0402V57.0402Z" fill="#00160A"/>
<path fill-rule="evenodd" clip-rule="evenodd" d="M55.1822 60.8673C55.1574 60.4816 55.1604 60.0921 55.2286 59.7117C55.2802 59.4232 55.3688 59.1428 55.4572 58.8634C55.6477 58.2609 55.8389 57.6568 56.1 57.0814C57.38 54.2607 60.4397 52.3503 63.5362 52.4307C66.6326 52.5111 69.586 54.5734 70.7353 57.4497C71.8846 60.3261 71.1685 63.8512 68.9935 66.0565C66.8184 68.2619 63.3089 69.0275 60.4102 67.9357C57.5115 66.844 55.3806 63.9584 55.1822 60.8673" fill="white"/>
<path fill-rule="evenodd" clip-rule="evenodd" d="M63.4884 26.0184C63.5043 27.2429 63.1913 28.5523 63.7578 29.638C64.8071 31.6491 67.7539 31.2753 69.9216 30.6067C68.14 28.579 66.3585 26.5514 64.577 24.5238C68.2676 20.7555 71.9582 16.9873 75.6489 13.219C75.9566 12.9048 76.3118 12.5691 76.7515 12.5605C77.2586 12.5506 77.6551 12.9748 77.9799 13.3644C79.1888 14.8144 80.3977 16.2644 81.6066 17.7144C82.6026 18.9091 83.5509 20.8441 82.3318 21.8101C86.9055 21.4997 91.4791 21.1893 96.0528 20.879C95.1964 15.9872 96.7701 9.96602 98.3238 5.24913C98.4787 4.77898 98.6659 4.26766 99.0955 4.02169C99.3964 3.84939 99.7607 3.84249 100.107 3.8401C108.458 3.78252 116.808 3.72493 125.159 3.66734C125.664 3.66385 126.198 3.66739 126.635 3.922C127.01 4.14048 127.263 4.51514 127.499 4.87896C134.564 15.7396 138.974 29.3797 140.243 42.2736C140.402 43.8909 142.474 55.473 140.243 55.8166C129.615 57.4526 131.698 47.8202 120.473 49.2294C111.25 50.3871 112.993 55.8166 107.662 56.8746C102.874 57.8249 86.5418 58.0611 81.2476 58.3262C73.9847 58.6899 73.4715 47.7104 62.4111 48.1565C51.3507 48.6026 51.6039 61.161 45.6454 59.7234C45.397 59.6635 42.6993 58.0944 42.6385 57.9064C41.7604 55.1928 41.102 45.2605 41.102 45.2605L39.0221 44.7986C39.0221 44.7986 38.8693 39.6712 39.0221 39.5074C39.2913 39.2189 44.0062 39.7365 46.0468 39.5074C45.4439 35.3212 44.8411 31.1349 44.2383 26.9486C44.1862 26.5871 44.1412 26.1899 44.3377 25.882C44.5561 25.5398 44.9948 25.4264 45.3922 25.3434C50.7097 24.2324 56.1207 23.5696 61.5492 23.3643C62.7728 23.318 63.4725 24.794 63.4884 26.0184Z" fill="white"/>
<path fill-rule="evenodd" clip-rule="evenodd" d="M52.7582 37.4396L50.3644 37.6101L49.0189 24.6603L51.1149 24.3157L52.7582 37.4396Z" fill="#FFB61D"/>
<path fill-rule="evenodd" clip-rule="evenodd" d="M109.289 12.7748C109.937 12.6501 122.373 21.2801 122.244 21.4201C122.115 21.5601 109.032 12.8241 109.289 12.7748Z" fill="#E7EAEE"/>
<path fill-rule="evenodd" clip-rule="evenodd" d="M114.622 12.7748C115.125 12.6853 121.499 16.9945 121.321 17.2455C121.144 17.4965 114.301 12.832 114.622 12.7748Z" fill="#E7EAEE"/>
<path fill-rule="evenodd" clip-rule="evenodd" d="M107.955 15.4415C107.714 15.0144 114.847 19.9497 114.655 19.9122C112.817 19.5529 108.026 15.5669 107.955 15.4415Z" fill="#E7EAEE"/>
<path fill-rule="evenodd" clip-rule="evenodd" d="M107.113 29.3648C107.269 29.4884 107.205 29.7692 107.028 29.8617C106.852 29.9542 106.627 29.8925 106.471 29.7686C106 29.3956 106.098 28.6049 106.51 28.1681C106.922 27.7313 107.533 27.5573 108.113 27.4015C108.353 27.3368 108.594 27.2722 108.834 27.2076C109.325 27.0757 109.847 26.9439 110.334 27.0898C110.821 27.2356 111.227 27.7754 111.037 28.2472C110.919 28.5441 110.604 28.7237 110.29 28.7806C109.975 28.8374 109.652 28.7942 109.333 28.7725C108.706 28.7298 108.074 28.7708 107.458 28.8942C107.337 28.9184 107.21 28.9496 107.123 29.0374C107.037 29.1252 107.016 29.2884 107.113 29.3648Z" fill="#00160A"/>
<path fill-rule="evenodd" clip-rule="evenodd" d="M110.268 56.2626C110.105 56.9363 109.942 57.6099 109.779 58.2836C109.73 58.4895 109.675 58.7052 109.53 58.8601C109.315 59.0906 108.968 59.1235 108.653 59.1416C98.7537 59.7088 88.8463 60.1426 78.935 60.4428C78.2649 60.4631 77.6334 60.081 77.1936 59.575C76.7538 59.069 76.4741 58.4471 76.2005 57.8351C76.6338 57.7304 77.0443 58.0751 77.3082 58.4344C77.5721 58.7936 77.8043 59.2177 78.2144 59.3925C78.4842 59.5076 78.789 59.4938 79.0818 59.4781C88.7067 58.9613 98.3317 58.4445 107.957 57.9276C108.303 57.909 108.68 57.8786 108.937 57.6458C109.203 57.4063 109.266 57.0221 109.421 56.7002C109.577 56.3784 109.958 56.0845 110.268 56.2626L110.268 56.2626Z" fill="#00160A"/>
<path fill-rule="evenodd" clip-rule="evenodd" d="M36.2129 62.0172C35.7449 61.5173 35.1533 61.134 34.5057 60.9112C34.0661 60.76 33.5624 60.6874 33.1496 60.9013C32.7369 61.1152 32.5066 61.7056 32.7969 62.0687C32.9497 62.2598 32.6048 62.4409 32.3658 62.4933C31.6517 62.6499 31.1128 63.4416 31.3152 64.1441C31.5176 64.8467 32.5002 65.213 33.0671 64.7512C33.2723 64.5841 33.4099 64.3399 33.6323 64.1964C33.8547 64.0528 34.2295 64.0831 34.2978 64.3388C34.442 64.8779 34.9336 65.3064 35.4874 65.3756C35.8491 65.4207 36.277 65.2731 36.3891 64.9263C36.5877 64.3119 35.6815 63.6754 35.99 63.1082C36.1456 62.8221 36.522 62.7605 36.8464 62.7313C38.0858 62.6198 39.3253 62.5083 40.5647 62.3968C40.7723 62.3782 41.0433 62.3996 41.102 62.5996C41.1039 62.8407 40.7984 62.9409 40.5591 62.9707C39.2691 63.1311 37.9791 63.2915 36.6891 63.4519C37.2888 63.9608 37.3483 64.9705 36.841 65.5716C36.3337 66.1726 35.3641 66.296 34.7002 65.8742C34.4788 65.7335 34.2902 65.5428 34.0574 65.4218C33.8247 65.3008 33.5171 65.2649 33.3156 65.4327C32.8599 65.8122 32.1728 65.7097 31.6276 65.4767C31.0871 65.2457 30.5538 64.8517 30.428 64.2776C30.3034 63.7087 30.6141 63.1354 30.9815 62.6835C31.3489 62.2316 31.7927 61.8224 32.0134 61.2835C32.3373 60.4929 33.2934 60.0993 34.1404 60.2111C34.9873 60.3229 35.7289 60.8384 36.3458 61.4295C36.743 61.8101 37.3873 61.6608 37.9124 61.4966C38.4374 61.3325 39.0968 61.2113 39.4645 61.6204C38.7074 61.7923 37.9503 61.9642 37.1932 62.1361C36.8562 62.2126 36.449 62.2695 36.2129 62.0172Z" fill="#E7EAEE"/>
<path fill-rule="evenodd" clip-rule="evenodd" d="M51.3716 61.2843C51.3352 60.7159 51.3396 60.1417 51.44 59.5811C51.5162 59.1559 51.6468 58.7427 51.777 58.3309C52.0578 57.4429 52.3395 56.5524 52.7244 55.7043C54.6109 51.5471 59.1206 48.7313 63.6843 48.8498C68.2481 48.9683 72.601 52.0079 74.295 56.2472C75.9889 60.4866 74.9334 65.6822 71.7277 68.9326C68.522 72.183 63.3494 73.3115 59.0771 71.7023C54.8048 70.0931 51.6641 65.8402 51.3716 61.2843M53.7658 57.0316C53.563 57.571 53.4048 58.1363 53.4054 58.7125C53.4073 60.4794 53.5465 62.2721 54.1463 63.9341C55.4069 67.4272 58.805 70.0423 62.5032 70.3801C66.2015 70.718 70.0108 68.7686 71.9121 65.5786C73.8134 62.3886 73.719 58.1191 71.6902 55.0086C69.6615 51.8981 65.8014 50.0916 62.1117 50.5126C58.422 50.9336 55.073 53.5556 53.7658 57.0316H53.7658Z" fill="#00160A"/>
<path fill-rule="evenodd" clip-rule="evenodd" d="M125.985 50.5025C129.854 52.1287 132.547 56.2226 132.508 60.419C132.469 64.6154 129.701 68.659 125.803 70.2135C121.905 71.768 117.114 70.7389 114.198 67.7208C111.282 64.7026 110.419 59.8791 112.107 56.0369C112.506 55.1284 113.046 54.2608 113.814 53.6316C115.553 52.2055 117.354 50.7487 119.505 50.093C121.618 49.4493 123.949 49.6468 125.985 50.5025M116.986 52.5335C116.478 52.8582 115.998 53.2374 115.622 53.7091C115.225 54.208 114.956 54.7947 114.691 55.3748C114.294 56.2445 113.896 57.119 113.648 58.0423C112.797 61.2149 113.948 64.8303 116.465 66.941C118.982 69.0517 122.731 69.5577 125.725 68.2064C128.718 66.855 130.816 63.7205 130.941 60.4381C131.067 57.1557 129.223 53.878 126.362 52.2643C123.501 50.6506 119.753 50.7645 116.986 52.5335V52.5335Z" fill="#00160A"/>
<path fill-rule="evenodd" clip-rule="evenodd" d="M122.565 7.43159C115.855 7.57444 109.145 7.71729 102.435 7.86014C102.267 7.86371 102.082 7.87475 101.965 7.9942C101.889 8.07139 101.856 8.18019 101.828 8.28454C100.34 13.7112 101.545 19.4607 102.556 24.9961C103.186 28.4471 103.739 31.9123 104.213 35.3882C104.555 37.8912 104.856 40.4084 104.835 42.9345C104.828 43.7378 105.393 44.4638 106.096 44.8518C106.8 45.2398 107.622 45.3446 108.425 45.3835C110.115 45.4656 111.818 45.2858 113.453 44.8527C113.758 44.772 114.074 44.6819 114.383 44.7398C114.693 44.7977 114.991 45.0581 114.972 45.3726C114.951 45.7364 114.557 45.9454 114.214 46.0675C112.054 46.8359 109.683 47.001 107.438 46.5394C106.361 46.318 105.237 45.9001 104.62 44.9899C104.268 44.4722 104.118 43.8477 103.982 43.2371C102.606 37.094 101.919 30.8205 101.249 24.5612C100.639 18.8728 100.041 13.14 100.552 7.44192C100.567 7.2658 100.587 7.08261 100.68 6.9325C100.881 6.61065 101.323 6.56693 101.702 6.55762C108.8 6.38332 115.897 6.20902 122.995 6.03473C123.398 6.02484 123.83 6.02338 124.162 6.25104C124.407 6.41901 124.56 6.68791 124.705 6.9474C127.278 11.5667 129.851 16.186 132.424 20.8053C132.939 21.7295 133.47 22.7911 133.15 23.7994C132.912 24.5472 132.235 25.0896 131.5 25.3629C130.764 25.6362 129.967 25.6808 129.183 25.7226C127.777 25.7976 126.371 25.8727 124.964 25.9478C121.49 26.1332 118.016 26.3186 114.542 26.504C114.343 26.5146 114.12 26.5174 113.973 26.3827C113.758 26.1862 113.85 25.8023 114.08 25.6229C114.309 25.4435 114.618 25.4121 114.908 25.3877C120.151 24.9455 125.394 24.5034 130.636 24.0613C131.047 24.0266 131.332 23.5952 131.351 23.1833C131.369 22.7713 131.191 22.379 131.015 22.0059C128.744 17.1791 126.285 12.4408 123.645 7.80534C123.446 7.45683 122.966 7.42305 122.565 7.43159V7.43159Z" fill="#00160A"/>
<path fill-rule="evenodd" clip-rule="evenodd" d="M59.2863 53.7818C61.6312 52.484 64.6817 52.6358 66.9394 54.0801C69.197 55.5243 70.6036 58.1739 70.6332 60.8538C70.6633 63.5834 69.1835 66.3799 66.7115 67.5379C65.8497 67.9417 64.9 68.1426 63.949 68.1797C60.4837 68.315 57.0163 66.0362 55.9059 62.7508C54.7955 59.4654 56.2521 55.4612 59.2863 53.7818M64.6386 67.0056C65.5496 66.8537 66.4349 66.5286 67.2097 66.026C68.0038 65.5109 68.6771 64.8108 69.1608 63.9972C70.4198 61.8794 70.2588 59.0349 68.8614 57.0057C67.464 54.9765 64.9363 53.8189 62.4771 53.969C61.5603 54.0249 60.6503 54.2505 59.8307 54.6651C57.0027 56.096 55.7041 59.8723 56.9007 62.8071C58.0973 65.7419 61.5123 67.5267 64.6386 67.0056L64.6386 67.0056Z" fill="#00160A"/>
<path fill-rule="evenodd" clip-rule="evenodd" d="M83.8141 49.0606C83.4059 48.6979 82.7541 48.7166 82.3562 48.3426C82.4683 47.9371 82.8427 47.6707 83.1055 47.3421C83.7267 46.5656 83.6615 45.3257 82.9622 44.6187C82.6085 44.261 82.0953 43.9871 82.0017 43.4928C82.7329 43.3672 83.472 43.1314 84.0225 42.6341C84.5731 42.1369 84.8923 41.3308 84.6504 40.6295C84.5762 40.4141 84.4518 40.2084 84.449 39.9806C84.4461 39.7528 84.6441 39.5006 84.8632 39.5631C86.0362 39.8978 87.4075 39.1176 87.7191 37.9383C87.853 37.4316 88.5985 37.4816 89.0666 37.7173C89.5346 37.9531 90.1308 38.2512 90.5285 37.9099C90.8652 37.6211 90.9269 36.9502 91.3705 36.9586C91.6001 36.9629 91.7626 37.1721 91.9227 37.3368C92.475 37.9044 93.3939 38.0765 94.1142 37.7471C94.3662 37.6318 94.5993 37.4605 94.8729 37.4164C95.1465 37.3724 95.4834 37.5263 95.5009 37.8028C95.5541 38.6392 96.4677 39.307 97.2807 39.1037C97.5911 39.0262 98.1177 39.043 98.0126 39.3451C97.6918 40.2672 98.3778 41.3967 99.3439 41.5373C99.5898 41.5731 99.8513 41.5558 100.074 41.6665C100.296 41.7772 100.444 42.093 100.276 42.2767C99.5576 43.0658 99.8611 44.5294 100.834 44.9676C101.097 45.0857 101.035 45.4951 100.836 45.7033C100.638 45.9115 100.352 46.038 100.206 46.2863C99.9537 46.718 100.254 47.2684 100.621 47.6082C100.988 47.9481 101.45 48.2336 101.622 48.7033C100.931 48.4394 100.075 48.711 99.6622 49.3251C99.2497 49.9392 99.3219 50.8344 99.8275 51.3745C99.5605 51.8545 98.8472 51.6634 98.3 51.7116C97.6344 51.7702 97.0518 52.3465 96.9859 53.0114C96.9572 53.3007 97.0143 53.6042 96.9113 53.876C96.8083 54.1479 96.4323 54.3444 96.2267 54.1389C95.4621 53.3746 93.9994 53.5283 93.4104 54.4348C93.2705 54.6501 93.1327 54.9256 92.877 54.9488C92.4745 54.9853 92.3458 54.4034 92.0182 54.1668C91.612 53.8734 91.0352 54.2062 90.7496 54.6179C90.4639 55.0296 90.2855 55.5439 89.8651 55.8166C89.0666 55.2303 89.3088 53.5704 88.3275 53.4348C87.9038 53.3762 87.5306 53.6907 87.1295 53.839C86.7283 53.9874 86.1098 53.7892 86.1848 53.3681C86.3075 52.679 86.2037 51.7606 85.527 51.582C84.8592 51.4056 84.0048 52.1002 83.5439 51.5858C84.0433 50.8057 84.5065 49.6758 83.8141 49.0606M84.259 44.7707C83.9525 45.3258 84.0084 45.9993 83.9511 46.6309C83.8938 47.2624 83.6286 47.9754 83.0224 48.1616C83.7076 48.2102 84.3488 48.6642 84.6222 49.2944C84.8957 49.9246 84.7893 50.7029 84.3567 51.2366C84.9181 50.816 85.7748 50.9385 86.2844 51.4206C86.794 51.9028 86.9768 52.6635 86.8729 53.3573C87.4506 52.9445 88.2649 52.8921 88.8907 53.2277C89.5164 53.5632 89.9235 54.2705 89.8992 54.9801C90.0717 54.3505 90.5664 53.8002 91.1978 53.6345C91.8292 53.4688 92.57 53.7383 92.8877 54.3085C92.9169 53.8788 93.3224 53.5744 93.7211 53.4115C94.5754 53.0624 95.5769 53.0928 96.4084 53.4932C96.3068 52.1526 97.7085 50.9224 99.0245 51.197C98.6127 50.7674 98.636 50.0682 98.8648 49.5189C99.1532 48.8264 99.8284 48.2231 100.574 48.3026C100.141 48.144 99.7916 47.7733 99.6587 47.3316C99.4358 46.5907 99.8418 45.764 100.473 45.3167C99.6762 45.1493 99.4196 44.1583 99.3209 43.35C99.2694 42.9287 99.2944 42.3768 99.6966 42.2414C98.8666 42.0068 98.1172 41.4962 97.5953 40.8095C97.3539 40.4918 97.1811 39.9903 97.4877 39.735C96.8513 39.702 96.2237 39.5112 95.6767 39.1844C95.2604 38.9357 94.8508 38.48 95.0087 38.0215C93.8947 38.5719 92.4916 38.4845 91.4545 37.8002C91.1411 38.2933 90.5267 38.5323 89.9425 38.5301C89.3583 38.5279 88.7953 38.3198 88.2604 38.0848C88.3237 38.4714 88.0631 38.8348 87.7803 39.1059C87.0615 39.7951 86.0951 40.2205 85.1014 40.285C85.5434 41.8051 84.3653 43.5794 82.7928 43.7617C83.1727 44.2268 83.6939 44.5672 84.259 44.7707Z" fill="#00160A"/>
<path fill-rule="evenodd" clip-rule="evenodd" d="M122.902 66.5538C121.907 66.6897 120.88 66.5929 119.927 66.2734C116.905 65.2601 114.93 61.8044 115.591 58.6867C116.251 55.5689 119.458 53.2109 122.631 53.51C125.804 53.809 128.513 56.7245 128.58 59.9108C128.646 63.0971 126.06 66.1229 122.902 66.5538M125.183 65.2075C127.306 63.9191 128.471 61.2249 127.956 58.7956C127.441 56.3662 125.284 54.3764 122.82 54.0598C120.357 53.7432 117.766 55.1226 116.654 57.3428C115.541 59.563 115.988 62.4643 117.716 64.2477C119.601 66.1938 122.866 66.6135 125.183 65.2075Z" fill="#00160A"/>
<path fill-rule="evenodd" clip-rule="evenodd" d="M91.8825 38.6333C94.5913 38.6023 97.2538 40.2149 98.481 42.6299C99.7083 45.0449 99.4413 48.1462 97.8194 50.316C96.1975 52.4858 93.2987 53.6197 90.635 53.1263C88.2821 52.6905 86.1938 51.0212 85.2503 48.8221C84.3067 46.6231 84.536 43.9594 85.8414 41.9539C87.1469 39.9485 89.4898 38.6606 91.8825 38.6333M98.7939 45.4981C98.7259 44.4192 98.3964 43.3577 97.8415 42.43C96.1495 39.6012 92.2281 38.363 89.2185 39.7071C86.2088 41.0512 84.5137 44.7978 85.4909 47.9458C86.4681 51.0937 89.9869 53.2218 93.2286 52.6253C96.4704 52.0289 99.0012 48.7877 98.7939 45.4981V45.4981Z" fill="#00160A"/>
<path fill-rule="evenodd" clip-rule="evenodd" d="M95.6717 45.9598C95.1601 46.5573 94.342 46.877 93.5609 46.7848C93.2909 46.7529 92.874 46.8203 92.9465 47.0825C93.8698 47.407 94.7931 47.7315 95.7165 48.0561C96.2278 48.2358 96.3743 48.9707 96.07 49.4193C95.7657 49.8679 95.164 50.0355 94.626 49.9693C94.0881 49.903 93.5956 49.6443 93.1169 49.39C92.6344 49.1337 92.1518 48.8773 91.6692 48.621C92.3204 48.3636 93.0266 48.7586 93.6438 49.0895C94.261 49.4204 95.0802 49.6788 95.6096 49.2204C95.6898 49.151 95.7607 49.0619 95.775 48.9568C95.8091 48.7057 95.5298 48.5385 95.2951 48.443C94.5534 48.1412 93.8117 47.8393 93.0699 47.5375C92.6954 47.3851 92.2544 47.5173 91.9333 47.7632C91.6123 48.009 91.3843 48.3534 91.1515 48.684C90.6588 49.3837 90.0653 50.0868 89.2434 50.325C88.4216 50.5631 87.3545 50.0982 87.27 49.2467C87.2169 48.7114 87.5529 48.2107 87.9508 47.8488C88.3487 47.487 88.8222 47.2095 89.1867 46.814C89.2327 46.7641 89.279 46.7075 89.2846 46.6398C89.2964 46.4988 89.1378 46.4119 89.0049 46.3628C88.2889 46.0986 87.5728 45.8344 86.8567 45.5701C86.5471 45.4558 86.7397 44.9209 87.0674 44.8813C87.395 44.8416 87.6825 45.0786 87.9444 45.2796C88.6353 45.8098 89.5935 46.1814 90.365 45.7772C90.9151 45.489 91.2317 44.8137 91.1014 44.2065C90.9239 43.379 91.2345 42.4652 91.8795 41.9172C92.5245 41.3692 93.4765 41.2103 94.2644 41.5192C93.6629 41.8022 93.3885 42.6236 93.6992 43.2114C94.0098 43.7991 94.843 44.0351 95.4157 43.6974C95.6256 43.5737 95.9048 43.3911 96.074 43.5664C96.121 43.6151 96.1434 43.682 96.1616 43.7472C96.3731 44.5047 96.1832 45.3623 95.6717 45.9598ZM91.8085 43.6561C91.8064 44.5613 92.3143 45.4933 93.154 45.8314C93.9937 46.1694 95.1076 45.7509 95.3814 44.8881C95.4423 44.6961 95.3378 44.3872 95.1543 44.4703C94.6538 44.6968 94.0638 44.4349 93.6411 44.0839C93.3657 43.8552 93.1161 43.5753 93.011 43.2331C92.9059 42.8909 92.9746 42.4781 93.2488 42.248C92.8186 42.1517 92.3393 42.3318 92.0789 42.6875C91.8776 42.9626 91.8093 43.3153 91.8085 43.6561ZM88.1602 49.3607C89.253 50.441 89.9035 49.0256 90.1679 48.7218C90.7812 48.0174 91.4313 47.3451 92.1148 46.7086C92.2491 46.5835 92.254 46.3636 92.176 46.1974C92.0981 46.0312 91.9552 45.9061 91.8162 45.7861C91.6094 45.6075 91.2764 45.6586 91.0608 45.8266C90.8451 45.9945 87.0674 48.2803 88.1602 49.3607Z" fill="#FFB61D"/>
<path fill-rule="evenodd" clip-rule="evenodd" d="M62.9143 56.8854C63.9105 56.8056 64.934 57.1691 65.6568 57.8593C66.7769 58.9287 67.0661 60.7683 66.3283 62.1299C65.5905 63.4914 63.8915 64.2537 62.3839 63.8994C60.9482 63.5619 59.7982 62.2467 59.6553 60.7788C59.5124 59.3108 60.3871 57.7986 61.7309 57.1906C62.1039 57.0218 62.5062 56.918 62.9143 56.8854M64.6431 58.0068C64.2906 57.767 63.9031 57.5663 63.4838 57.4889C63.0069 57.4008 62.5074 57.478 62.0601 57.6654C60.9232 58.1417 60.1482 59.3756 60.2222 60.606C60.2963 61.8364 61.2199 62.9719 62.412 63.2858C63.604 63.5996 64.9723 63.0612 65.6229 62.0142C66.2734 60.9672 66.1467 59.4954 65.3198 58.5813C65.1208 58.3613 64.8883 58.1736 64.6431 58.0068V58.0068Z" fill="#00160A"/>
<path fill-rule="evenodd" clip-rule="evenodd" d="M63.4884 24.4183C63.5043 25.6428 63.1913 26.9522 63.7578 28.0379C64.8071 30.049 67.7539 29.6752 69.9216 29.0066C68.1401 26.9789 66.3585 24.9513 64.577 22.9237C68.2676 19.1554 71.9583 15.3872 75.6489 11.6189C75.9566 11.3047 76.3119 10.9689 76.7516 10.9604C77.2586 10.9505 77.6552 11.3747 77.9799 11.7642C79.1888 13.2143 80.3977 14.6643 81.6066 16.1143C82.6026 17.309 83.551 19.244 82.3318 20.2099C86.9055 19.8996 91.4792 19.5892 96.0528 19.2789C95.1964 14.3871 96.7701 9.43257 98.3238 4.71568C98.4787 4.24553 98.666 3.73421 99.0955 3.48824C99.3964 3.31595 99.7607 3.30905 100.107 3.30665C108.458 3.24907 116.808 3.19148 125.159 3.1339C125.664 3.13041 126.198 3.13395 126.635 3.38855C127.01 3.60703 127.263 3.98169 127.499 4.34552C134.564 15.2061 138.975 27.7796 140.243 40.6735C140.402 42.2908 140.576 44.058 141.717 45.2147C143.455 46.9755 143.642 50.0439 142.131 52.0028C143.242 52.8092 142.968 54.6712 141.95 55.593C140.933 56.5147 139.486 56.7503 138.127 56.9464C136.324 57.2066 134.362 57.4388 132.785 56.5254C135.367 55.9203 137.953 55.3294 140.542 54.7528C139.394 47.1904 138.245 39.628 137.097 32.0655C136.718 29.5717 136.338 27.0692 135.632 24.6475C134.872 22.0399 133.743 19.557 132.619 17.0845C130.848 13.1903 129.077 9.29615 127.306 5.40199C127.113 4.9777 126.904 4.5333 126.523 4.26407C126.062 3.93801 125.454 3.93878 124.89 3.95221C117.029 4.13935 109.167 4.32649 101.306 4.51362C100.853 4.52441 100.365 4.54726 100.008 4.8279C99.7155 5.05875 99.5669 5.4232 99.4387 5.77343C96.3431 14.2317 98.1565 23.6015 100.003 32.4172C100.342 34.0368 98.1417 34.8642 96.4933 35.0087C77.6747 36.6585 58.8561 38.3083 40.0375 39.9581C39.8066 41.4501 39.7415 42.9677 39.8438 44.474C41.0962 44.5841 42.3486 44.6942 43.6011 44.8043C43.2038 44.9607 42.8066 45.117 42.4094 45.2734C43.1499 49.1654 43.5592 53.1203 43.6315 57.0814C43.6535 58.2869 44.6984 59.2788 45.8493 59.6381C47.0002 59.9975 48.2396 59.8638 49.4375 59.7266C48.1624 60.2605 46.8336 60.8044 45.453 60.7367C44.0723 60.669 42.6266 59.7983 42.3718 58.4396C41.5727 54.1792 41.1126 49.8553 40.9971 45.5221C40.2714 45.5397 39.5458 45.5574 38.8202 45.5751C38.5749 43.7618 38.4762 41.9288 38.5252 40.0997C38.5358 39.7061 38.5677 39.2761 38.8363 38.9882C39.1056 38.6996 39.533 38.6386 39.9252 38.5946C41.9657 38.3655 44.0063 38.1364 46.0468 37.9073C45.444 33.721 44.8411 29.5348 44.2383 25.3485C44.1862 24.987 44.1412 24.5898 44.3377 24.2819C44.5562 23.9397 44.9948 23.8263 45.3923 23.7433C50.7097 22.6323 56.1208 21.9695 61.5492 21.7642C62.7728 21.7179 63.4725 23.1939 63.4884 24.4183ZM46.8167 37.4847C46.8303 37.6034 46.8506 37.735 46.9443 37.8093C47.0353 37.8815 47.1639 37.874 47.2796 37.8631C52.6187 37.3561 57.9578 36.8491 63.2969 36.3421C63.4443 36.3281 63.6121 36.3024 63.6925 36.1781C63.7557 36.0806 63.7426 35.9543 63.7273 35.8392C63.1817 31.7426 62.6361 27.646 62.0905 23.5493C62.0755 23.4368 62.0572 23.3168 61.981 23.2326C61.8787 23.1195 61.7081 23.1077 61.5557 23.1044C56.2801 22.989 50.9906 23.5264 45.8461 24.7007C45.7061 24.7326 45.5528 24.7739 45.4727 24.8932C45.3977 25.005 45.4101 25.1516 45.4253 25.2853C45.8891 29.3518 46.3529 33.4183 46.8167 37.4847ZM96.4911 21.1074C96.4682 20.9175 96.4285 20.7006 96.2635 20.6038C96.1583 20.5421 96.0284 20.5471 95.9066 20.554C91.1532 20.8224 86.3997 21.0908 81.6463 21.3591C81.5416 21.365 81.4285 21.3742 81.3493 21.443C81.2338 21.5433 81.2404 21.7214 81.2565 21.8736C81.6916 25.9777 82.1267 30.0818 82.5618 34.1859C82.5755 34.3151 82.5941 34.4551 82.6861 34.5469C82.8044 34.6649 82.9946 34.6576 83.1609 34.6424C88.093 34.1902 93.0251 33.7381 97.9572 33.2859C97.4685 29.2264 96.9798 25.1669 96.4911 21.1074ZM70.9572 28.0222C71.0265 28.0852 71.1023 28.1513 71.1953 28.1622C71.3268 28.1777 71.4415 28.0798 71.5375 27.9886C74.7508 24.9347 78.4973 22.4141 81.7106 19.3603C81.8553 19.2227 82.0112 19.0595 82.0044 18.86C81.9999 18.7263 81.9217 18.6077 81.8459 18.4975C80.5652 16.6339 78.6705 14.2924 77.2335 12.5464C77.0924 12.3749 76.9102 12.1869 76.6898 12.2149C76.5493 12.2327 76.437 12.3362 76.3349 12.4344C72.7856 15.8539 69.2362 19.2733 65.6869 22.6927C65.6078 22.7689 65.523 22.8582 65.5245 22.968C65.526 23.0779 65.6136 23.165 65.695 23.239C67.4491 24.8334 69.2032 26.4278 70.9572 28.0222ZM81.2283 29.7011C81.2008 29.5251 81.1618 29.3297 81.0164 29.2269C80.8873 29.1356 80.7146 29.1468 80.5572 29.1618C75.6437 29.6296 70.7303 30.0974 65.8169 30.5652C65.5601 30.5897 65.2591 30.6434 65.1473 30.8759C65.0858 31.0039 65.1011 31.1538 65.1177 31.2949C65.2835 32.6979 65.4493 34.101 65.6151 35.504C65.6385 35.7018 65.6762 35.9244 65.8408 36.0365C65.9726 36.1262 66.1456 36.1159 66.3044 36.1021C71.386 35.6614 76.4676 35.2207 81.5491 34.7799C81.6757 34.7689 81.8168 34.7506 81.8964 34.6515C81.9784 34.5495 81.9624 34.4029 81.9422 34.2736C81.7043 32.7494 81.4663 31.2253 81.2283 29.7011ZM80.2071 22.3737C80.1955 22.2886 80.1559 22.1791 80.0702 22.1858C80.0339 22.1887 80.0038 22.2138 79.9764 22.2377C77.4489 24.4459 74.9214 26.6542 72.3939 28.8624C75.0219 28.642 77.6475 28.3915 80.2698 28.1108C80.4951 28.0867 80.7554 28.0401 80.8631 27.8408C80.9335 27.7106 80.9154 27.5525 80.8953 27.406C80.6659 25.7286 80.4365 24.0511 80.2071 22.3737ZM141.203 46.0182C141.445 47.4152 141.687 48.8123 141.929 50.2094C141.953 50.348 142.003 50.5148 142.14 50.545C142.364 50.5941 142.441 50.2584 142.41 50.0318C142.246 48.8229 142.083 47.614 141.919 46.4051C141.889 46.1887 141.847 45.9486 141.672 45.818C141.497 45.6873 141.166 45.803 141.203 46.0182Z" fill="#00160A"/>
<path fill-rule="evenodd" clip-rule="evenodd" d="M21.0093 73.7143C16.34 73.788 0.282703 74.9778 0.00531812 74.382C-0.349552 73.6198 17.1608 72.6177 20.9777 72.5573L22.1732 72.5411C25.6436 72.5036 21.0093 73.7143 21.0093 73.7143ZM56.6732 72.2554C57.8071 72.2554 58.6947 72.6224 57.9314 72.8905C57.168 73.1587 54.6978 73.7229 50.5615 73.818C46.4251 73.9131 41.6306 74.0115 34.5459 74.151C34.1351 74.159 33.7955 73.8326 33.7875 73.4218C33.7794 73.011 34.1058 72.6714 34.5167 72.6633L47.0618 72.4076C50.8705 72.3252 53.2544 72.2554 56.6732 72.2554ZM113.341 71.8198C113.751 71.8133 114.09 72.1411 114.096 72.5519C114.103 72.9627 113.775 73.3011 113.364 73.3075L111.621 73.3289L106.287 73.3658C105.213 73.3768 61.7838 73.6542 61.195 73.0174C60.6061 72.3807 61.5097 72.2655 61.9205 72.2554C61.9205 72.2554 106.273 71.8764 107.432 71.8679L111.868 71.8386C112.384 71.8335 112.85 71.8275 113.341 71.8198ZM161.557 70.3885C161.557 70.3885 162.893 70.158 172.645 70.8881C173.055 70.9188 173.362 71.2758 173.331 71.6856C173.301 72.0953 168.478 71.8883 161.885 71.8768L160.072 71.8797C155.231 71.9012 150.734 72.0321 143.271 72.3394L133.85 72.7373C129.83 72.9019 127.432 72.9822 124.516 73.051C124.105 73.0607 123.764 72.7355 123.754 72.3248C123.745 71.914 124.07 71.5731 124.48 71.5634L126.823 71.5023C129.608 71.4217 132.471 71.3096 137.547 71.0929L142.929 70.8643C151.345 70.5163 156.024 70.3885 161.557 70.3885Z" fill="#00160A"/>
</svg>
